%TF.GenerationSoftware,KiCad,Pcbnew,10.0.3*%
%TF.CreationDate,2026-06-11T11:39:53-06:00*%
%TF.ProjectId,project_files,70726f6a-6563-4745-9f66-696c65732e6b,rev?*%
%TF.SameCoordinates,Original*%
%TF.FileFunction,Soldermask,Top*%
%TF.FilePolarity,Negative*%
%FSLAX46Y46*%
G04 Gerber Fmt 4.6, Leading zero omitted, Abs format (unit mm)*
G04 Created by KiCad (PCBNEW 10.0.3) date 2026-06-11 11:39:53*
%MOMM*%
%LPD*%
G01*
G04 APERTURE LIST*
G04 Aperture macros list*
%AMRoundRect*
0 Rectangle with rounded corners*
0 $1 Rounding radius*
0 $2 $3 $4 $5 $6 $7 $8 $9 X,Y pos of 4 corners*
0 Add a 4 corners polygon primitive as box body*
4,1,4,$2,$3,$4,$5,$6,$7,$8,$9,$2,$3,0*
0 Add four circle primitives for the rounded corners*
1,1,$1+$1,$2,$3*
1,1,$1+$1,$4,$5*
1,1,$1+$1,$6,$7*
1,1,$1+$1,$8,$9*
0 Add four rect primitives between the rounded corners*
20,1,$1+$1,$2,$3,$4,$5,0*
20,1,$1+$1,$4,$5,$6,$7,0*
20,1,$1+$1,$6,$7,$8,$9,0*
20,1,$1+$1,$8,$9,$2,$3,0*%
G04 Aperture macros list end*
%ADD10RoundRect,0.250000X0.550000X0.550000X-0.550000X0.550000X-0.550000X-0.550000X0.550000X-0.550000X0*%
%ADD11C,1.600000*%
%ADD12C,1.700000*%
%ADD13C,4.000000*%
%ADD14C,2.200000*%
%ADD15C,1.500000*%
%ADD16C,0.500000*%
%ADD17R,1.700000X1.700000*%
%ADD18O,1.700000X1.700000*%
%ADD19R,2.000000X2.000000*%
%ADD20C,2.000000*%
%ADD21R,3.200000X2.000000*%
%ADD22R,3.500000X1.700000*%
%ADD23O,3.600000X1.700000*%
%ADD24O,3.700000X1.700000*%
G04 APERTURE END LIST*
D10*
%TO.C,D8*%
X140958211Y-117408043D03*
D11*
X133338211Y-117408043D03*
%TD*%
D12*
%TO.C,SW5*%
X160723330Y-136412179D03*
D13*
X165803330Y-136412179D03*
D12*
X170883330Y-136412179D03*
D14*
X168343330Y-131332179D03*
X161993330Y-133872179D03*
%TD*%
D10*
%TO.C,D19*%
X188683211Y-145983043D03*
D11*
X181063211Y-145983043D03*
%TD*%
D15*
%TO.C,*%
X99046691Y-68591468D03*
%TD*%
D16*
%TO.C,REF\u002A\u002A*%
X174723211Y-98358043D03*
X175573211Y-98358043D03*
X176423211Y-98358043D03*
X177273211Y-98358043D03*
X178123211Y-98358043D03*
X178973211Y-98358043D03*
X179823211Y-98358043D03*
X180673211Y-98358043D03*
X181523211Y-98358043D03*
X182373211Y-98358043D03*
X183223211Y-98358043D03*
%TD*%
D15*
%TO.C,*%
X184774427Y-124552629D03*
%TD*%
D12*
%TO.C,SW11*%
X103487739Y-55492351D03*
D13*
X108567739Y-55492351D03*
D12*
X113647739Y-55492351D03*
D14*
X111107739Y-50412351D03*
X104757739Y-52952351D03*
%TD*%
D12*
%TO.C,SW19*%
X132142858Y-84021487D03*
D13*
X137222858Y-84021487D03*
D12*
X142302858Y-84021487D03*
D14*
X139762858Y-78941487D03*
X133412858Y-81481487D03*
%TD*%
D12*
%TO.C,SW8*%
X103493211Y-136458043D03*
D13*
X108573211Y-136458043D03*
D12*
X113653211Y-136458043D03*
D14*
X111113211Y-131378043D03*
X104763211Y-133918043D03*
%TD*%
D15*
%TO.C,*%
X194299731Y-148365889D03*
%TD*%
D10*
%TO.C,D20*%
X121977739Y-93592351D03*
D11*
X114357739Y-93592351D03*
%TD*%
D10*
%TO.C,D13*%
X179098211Y-117408043D03*
D11*
X171478211Y-117408043D03*
%TD*%
D16*
%TO.C,REF\u002A\u002A*%
X127973211Y-98358043D03*
X128823211Y-98358043D03*
X129673211Y-98358043D03*
X130523211Y-98358043D03*
X131373211Y-98358043D03*
X132223211Y-98358043D03*
X133073211Y-98358043D03*
X133923211Y-98358043D03*
X134773211Y-98358043D03*
X135623211Y-98358043D03*
X136473211Y-98358043D03*
%TD*%
%TO.C,REF\u002A\u002A*%
X109273211Y-98358043D03*
X110123211Y-98358043D03*
X110973211Y-98358043D03*
X111823211Y-98358043D03*
X112673211Y-98358043D03*
X113523211Y-98358043D03*
X114373211Y-98358043D03*
X115223211Y-98358043D03*
X116073211Y-98358043D03*
X116923211Y-98358043D03*
X117773211Y-98358043D03*
%TD*%
D12*
%TO.C,SW17*%
X122537739Y-55492351D03*
D13*
X127617739Y-55492351D03*
D12*
X132697739Y-55492351D03*
D14*
X130157739Y-50412351D03*
X123807739Y-52952351D03*
%TD*%
D16*
%TO.C,REF\u002A\u002A*%
X137323211Y-98358043D03*
X138173211Y-98358043D03*
X139023211Y-98358043D03*
X139873211Y-98358043D03*
X140723211Y-98358043D03*
X141573211Y-98358043D03*
X142423211Y-98358043D03*
X143273211Y-98358043D03*
X144123211Y-98358043D03*
X144973211Y-98358043D03*
X145823211Y-98358043D03*
%TD*%
%TO.C,REF\u002A\u002A*%
X118623211Y-98358043D03*
X119473211Y-98358043D03*
X120323211Y-98358043D03*
X121173211Y-98358043D03*
X122023211Y-98358043D03*
X122873211Y-98358043D03*
X123723211Y-98358043D03*
X124573211Y-98358043D03*
X125423211Y-98358043D03*
X126273211Y-98358043D03*
X127123211Y-98358043D03*
%TD*%
D12*
%TO.C,SW12*%
X122543211Y-136458043D03*
D13*
X127623211Y-136458043D03*
D12*
X132703211Y-136458043D03*
D14*
X130163211Y-131378043D03*
X123813211Y-133918043D03*
%TD*%
D16*
%TO.C,REF\u002A\u002A*%
X184073211Y-98358043D03*
%TD*%
%TO.C,REF\u002A\u002A*%
X165373211Y-98358043D03*
X166223211Y-98358043D03*
X167073211Y-98358043D03*
X167923211Y-98358043D03*
X168773211Y-98358043D03*
X169623211Y-98358043D03*
X170473211Y-98358043D03*
X171323211Y-98358043D03*
X172173211Y-98358043D03*
X173023211Y-98358043D03*
X173873211Y-98358043D03*
%TD*%
%TO.C,REF\u002A\u002A*%
X156023211Y-98358043D03*
X156873211Y-98358043D03*
X157723211Y-98358043D03*
X158573211Y-98358043D03*
X159423211Y-98358043D03*
X160273211Y-98358043D03*
X161123211Y-98358043D03*
X161973211Y-98358043D03*
X162823211Y-98358043D03*
X163673211Y-98358043D03*
X164523211Y-98358043D03*
%TD*%
D15*
%TO.C,*%
X99046691Y-65019479D03*
%TD*%
D12*
%TO.C,SW7*%
X170168211Y-107883043D03*
D13*
X175248211Y-107883043D03*
D12*
X180328211Y-107883043D03*
D14*
X177788211Y-102803043D03*
X171438211Y-105343043D03*
%TD*%
D10*
%TO.C,D18*%
X150473211Y-145983043D03*
D11*
X142853211Y-145983043D03*
%TD*%
D16*
%TO.C,REF\u002A\u002A*%
X146673211Y-98358043D03*
X147523211Y-98358043D03*
X148373211Y-98358043D03*
X149223211Y-98358043D03*
X150073211Y-98358043D03*
X150923211Y-98358043D03*
X151773211Y-98358043D03*
X152623211Y-98358043D03*
X153473211Y-98358043D03*
X154323211Y-98358043D03*
X155173211Y-98358043D03*
%TD*%
D15*
%TO.C,*%
X184774427Y-117408651D03*
%TD*%
D10*
%TO.C,D14*%
X112377739Y-65017351D03*
D11*
X104757739Y-65017351D03*
%TD*%
D12*
%TO.C,SW18*%
X141593211Y-136458043D03*
D13*
X146673211Y-136458043D03*
D12*
X151753211Y-136458043D03*
D14*
X149213211Y-131378043D03*
X142863211Y-133918043D03*
%TD*%
D10*
%TO.C,D9*%
X169633211Y-145983043D03*
D11*
X162013211Y-145983043D03*
%TD*%
D12*
%TO.C,SW9*%
X179773330Y-136412179D03*
D13*
X184853330Y-136412179D03*
D12*
X189933330Y-136412179D03*
D14*
X187393330Y-131332179D03*
X181043330Y-133872179D03*
%TD*%
D10*
%TO.C,D15*%
X131502739Y-65017351D03*
D11*
X123882739Y-65017351D03*
%TD*%
D15*
%TO.C,*%
X194299731Y-145984563D03*
%TD*%
D10*
%TO.C,D17*%
X131433211Y-145983043D03*
D11*
X123813211Y-145983043D03*
%TD*%
D10*
%TO.C,D21*%
X141027739Y-93592351D03*
D11*
X133407739Y-93592351D03*
%TD*%
D17*
%TO.C,OLED1*%
X180993272Y-89608234D03*
D18*
X178453272Y-89608234D03*
X175913272Y-89608234D03*
X173373272Y-89608234D03*
%TD*%
D12*
%TO.C,SW3*%
X113018211Y-107883043D03*
D13*
X118098211Y-107883043D03*
D12*
X123178211Y-107883043D03*
D14*
X120638211Y-102803043D03*
X114288211Y-105343043D03*
%TD*%
D15*
%TO.C,*%
X184774427Y-120980640D03*
%TD*%
%TO.C,*%
X108571995Y-78948871D03*
%TD*%
D10*
%TO.C,D7*%
X121908211Y-117408043D03*
D11*
X114288211Y-117408043D03*
%TD*%
D12*
%TO.C,SW4*%
X132068211Y-107883043D03*
D13*
X137148211Y-107883043D03*
D12*
X142228211Y-107883043D03*
D14*
X139688211Y-102803043D03*
X133338211Y-105343043D03*
%TD*%
D15*
%TO.C,*%
X99046691Y-72163457D03*
%TD*%
%TO.C,*%
X108571995Y-93595391D03*
%TD*%
%TO.C,*%
X108571995Y-95976717D03*
%TD*%
D19*
%TO.C,SongSelect1*%
X158680239Y-57992351D03*
D20*
X158680239Y-52992351D03*
X158680239Y-55492351D03*
D21*
X151180239Y-61092351D03*
X151180239Y-49892351D03*
D20*
X144180239Y-52992351D03*
X144180239Y-57992351D03*
%TD*%
D10*
%TO.C,D16*%
X112383211Y-145983043D03*
D11*
X104763211Y-145983043D03*
%TD*%
D15*
%TO.C,*%
X194299731Y-131338043D03*
%TD*%
D12*
%TO.C,SW13*%
X113092858Y-84021487D03*
D13*
X118172858Y-84021487D03*
D12*
X123252858Y-84021487D03*
D14*
X120712858Y-78941487D03*
X114362858Y-81481487D03*
%TD*%
D22*
%TO.C,U1*%
X185625000Y-50380000D03*
D23*
X185625000Y-52920000D03*
X185625000Y-55460000D03*
X185625000Y-58000000D03*
X185625000Y-60540000D03*
X185625000Y-63080000D03*
X185625000Y-65620000D03*
X168375000Y-65620000D03*
X168375000Y-63080000D03*
X168375000Y-60540000D03*
D24*
X168375000Y-58000000D03*
X168375000Y-55460000D03*
X168375000Y-52920000D03*
X168375000Y-50380000D03*
%TD*%
M02*
