%TF.GenerationSoftware,KiCad,Pcbnew,10.0.3*%
%TF.CreationDate,2026-06-11T11:39:53-06:00*%
%TF.ProjectId,project_files,70726f6a-6563-4745-9f66-696c65732e6b,rev?*%
%TF.SameCoordinates,Original*%
%TF.FileFunction,Legend,Bot*%
%TF.FilePolarity,Positive*%
%FSLAX46Y46*%
G04 Gerber Fmt 4.6, Leading zero omitted, Abs format (unit mm)*
G04 Created by KiCad (PCBNEW 10.0.3) date 2026-06-11 11:39:53*
%MOMM*%
%LPD*%
G01*
G04 APERTURE LIST*
%ADD10C,0.101600*%
%ADD11C,0.150000*%
%ADD12C,0.127000*%
%ADD13C,0.120000*%
%ADD14C,0.254000*%
%ADD15C,0.025400*%
G04 APERTURE END LIST*
D10*
X177677333Y-60056985D02*
X177677333Y-60776652D01*
X177677333Y-60776652D02*
X177635000Y-60861318D01*
X177635000Y-60861318D02*
X177592666Y-60903652D01*
X177592666Y-60903652D02*
X177508000Y-60945985D01*
X177508000Y-60945985D02*
X177338666Y-60945985D01*
X177338666Y-60945985D02*
X177254000Y-60903652D01*
X177254000Y-60903652D02*
X177211666Y-60861318D01*
X177211666Y-60861318D02*
X177169333Y-60776652D01*
X177169333Y-60776652D02*
X177169333Y-60056985D01*
X176280333Y-60945985D02*
X176788333Y-60945985D01*
X176534333Y-60945985D02*
X176534333Y-60056985D01*
X176534333Y-60056985D02*
X176619000Y-60183985D01*
X176619000Y-60183985D02*
X176703667Y-60268652D01*
X176703667Y-60268652D02*
X176788333Y-60310985D01*
D11*
X181761904Y-56907200D02*
X181619047Y-56954819D01*
X181619047Y-56954819D02*
X181380952Y-56954819D01*
X181380952Y-56954819D02*
X181285714Y-56907200D01*
X181285714Y-56907200D02*
X181238095Y-56859580D01*
X181238095Y-56859580D02*
X181190476Y-56764342D01*
X181190476Y-56764342D02*
X181190476Y-56669104D01*
X181190476Y-56669104D02*
X181238095Y-56573866D01*
X181238095Y-56573866D02*
X181285714Y-56526247D01*
X181285714Y-56526247D02*
X181380952Y-56478628D01*
X181380952Y-56478628D02*
X181571428Y-56431009D01*
X181571428Y-56431009D02*
X181666666Y-56383390D01*
X181666666Y-56383390D02*
X181714285Y-56335771D01*
X181714285Y-56335771D02*
X181761904Y-56240533D01*
X181761904Y-56240533D02*
X181761904Y-56145295D01*
X181761904Y-56145295D02*
X181714285Y-56050057D01*
X181714285Y-56050057D02*
X181666666Y-56002438D01*
X181666666Y-56002438D02*
X181571428Y-55954819D01*
X181571428Y-55954819D02*
X181333333Y-55954819D01*
X181333333Y-55954819D02*
X181190476Y-56002438D01*
X180380952Y-56907200D02*
X180476190Y-56954819D01*
X180476190Y-56954819D02*
X180666666Y-56954819D01*
X180666666Y-56954819D02*
X180761904Y-56907200D01*
X180761904Y-56907200D02*
X180809523Y-56811961D01*
X180809523Y-56811961D02*
X180809523Y-56431009D01*
X180809523Y-56431009D02*
X180761904Y-56335771D01*
X180761904Y-56335771D02*
X180666666Y-56288152D01*
X180666666Y-56288152D02*
X180476190Y-56288152D01*
X180476190Y-56288152D02*
X180380952Y-56335771D01*
X180380952Y-56335771D02*
X180333333Y-56431009D01*
X180333333Y-56431009D02*
X180333333Y-56526247D01*
X180333333Y-56526247D02*
X180809523Y-56621485D01*
X179523809Y-56907200D02*
X179619047Y-56954819D01*
X179619047Y-56954819D02*
X179809523Y-56954819D01*
X179809523Y-56954819D02*
X179904761Y-56907200D01*
X179904761Y-56907200D02*
X179952380Y-56811961D01*
X179952380Y-56811961D02*
X179952380Y-56431009D01*
X179952380Y-56431009D02*
X179904761Y-56335771D01*
X179904761Y-56335771D02*
X179809523Y-56288152D01*
X179809523Y-56288152D02*
X179619047Y-56288152D01*
X179619047Y-56288152D02*
X179523809Y-56335771D01*
X179523809Y-56335771D02*
X179476190Y-56431009D01*
X179476190Y-56431009D02*
X179476190Y-56526247D01*
X179476190Y-56526247D02*
X179952380Y-56621485D01*
X178666666Y-56907200D02*
X178761904Y-56954819D01*
X178761904Y-56954819D02*
X178952380Y-56954819D01*
X178952380Y-56954819D02*
X179047618Y-56907200D01*
X179047618Y-56907200D02*
X179095237Y-56811961D01*
X179095237Y-56811961D02*
X179095237Y-56431009D01*
X179095237Y-56431009D02*
X179047618Y-56335771D01*
X179047618Y-56335771D02*
X178952380Y-56288152D01*
X178952380Y-56288152D02*
X178761904Y-56288152D01*
X178761904Y-56288152D02*
X178666666Y-56335771D01*
X178666666Y-56335771D02*
X178619047Y-56431009D01*
X178619047Y-56431009D02*
X178619047Y-56526247D01*
X178619047Y-56526247D02*
X179095237Y-56621485D01*
X177761904Y-56954819D02*
X177761904Y-55954819D01*
X177761904Y-56907200D02*
X177857142Y-56954819D01*
X177857142Y-56954819D02*
X178047618Y-56954819D01*
X178047618Y-56954819D02*
X178142856Y-56907200D01*
X178142856Y-56907200D02*
X178190475Y-56859580D01*
X178190475Y-56859580D02*
X178238094Y-56764342D01*
X178238094Y-56764342D02*
X178238094Y-56478628D01*
X178238094Y-56478628D02*
X178190475Y-56383390D01*
X178190475Y-56383390D02*
X178142856Y-56335771D01*
X178142856Y-56335771D02*
X178047618Y-56288152D01*
X178047618Y-56288152D02*
X177857142Y-56288152D01*
X177857142Y-56288152D02*
X177761904Y-56335771D01*
X176571427Y-56907200D02*
X176428570Y-56954819D01*
X176428570Y-56954819D02*
X176190475Y-56954819D01*
X176190475Y-56954819D02*
X176095237Y-56907200D01*
X176095237Y-56907200D02*
X176047618Y-56859580D01*
X176047618Y-56859580D02*
X175999999Y-56764342D01*
X175999999Y-56764342D02*
X175999999Y-56669104D01*
X175999999Y-56669104D02*
X176047618Y-56573866D01*
X176047618Y-56573866D02*
X176095237Y-56526247D01*
X176095237Y-56526247D02*
X176190475Y-56478628D01*
X176190475Y-56478628D02*
X176380951Y-56431009D01*
X176380951Y-56431009D02*
X176476189Y-56383390D01*
X176476189Y-56383390D02*
X176523808Y-56335771D01*
X176523808Y-56335771D02*
X176571427Y-56240533D01*
X176571427Y-56240533D02*
X176571427Y-56145295D01*
X176571427Y-56145295D02*
X176523808Y-56050057D01*
X176523808Y-56050057D02*
X176476189Y-56002438D01*
X176476189Y-56002438D02*
X176380951Y-55954819D01*
X176380951Y-55954819D02*
X176142856Y-55954819D01*
X176142856Y-55954819D02*
X175999999Y-56002438D01*
X175714284Y-56288152D02*
X175333332Y-56288152D01*
X175571427Y-55954819D02*
X175571427Y-56811961D01*
X175571427Y-56811961D02*
X175523808Y-56907200D01*
X175523808Y-56907200D02*
X175428570Y-56954819D01*
X175428570Y-56954819D02*
X175333332Y-56954819D01*
X174571427Y-56288152D02*
X174571427Y-56954819D01*
X174999998Y-56288152D02*
X174999998Y-56811961D01*
X174999998Y-56811961D02*
X174952379Y-56907200D01*
X174952379Y-56907200D02*
X174857141Y-56954819D01*
X174857141Y-56954819D02*
X174714284Y-56954819D01*
X174714284Y-56954819D02*
X174619046Y-56907200D01*
X174619046Y-56907200D02*
X174571427Y-56859580D01*
X173666665Y-56954819D02*
X173666665Y-55954819D01*
X173666665Y-56907200D02*
X173761903Y-56954819D01*
X173761903Y-56954819D02*
X173952379Y-56954819D01*
X173952379Y-56954819D02*
X174047617Y-56907200D01*
X174047617Y-56907200D02*
X174095236Y-56859580D01*
X174095236Y-56859580D02*
X174142855Y-56764342D01*
X174142855Y-56764342D02*
X174142855Y-56478628D01*
X174142855Y-56478628D02*
X174095236Y-56383390D01*
X174095236Y-56383390D02*
X174047617Y-56335771D01*
X174047617Y-56335771D02*
X173952379Y-56288152D01*
X173952379Y-56288152D02*
X173761903Y-56288152D01*
X173761903Y-56288152D02*
X173666665Y-56335771D01*
X173190474Y-56954819D02*
X173190474Y-56288152D01*
X173190474Y-55954819D02*
X173238093Y-56002438D01*
X173238093Y-56002438D02*
X173190474Y-56050057D01*
X173190474Y-56050057D02*
X173142855Y-56002438D01*
X173142855Y-56002438D02*
X173190474Y-55954819D01*
X173190474Y-55954819D02*
X173190474Y-56050057D01*
X172571427Y-56954819D02*
X172666665Y-56907200D01*
X172666665Y-56907200D02*
X172714284Y-56859580D01*
X172714284Y-56859580D02*
X172761903Y-56764342D01*
X172761903Y-56764342D02*
X172761903Y-56478628D01*
X172761903Y-56478628D02*
X172714284Y-56383390D01*
X172714284Y-56383390D02*
X172666665Y-56335771D01*
X172666665Y-56335771D02*
X172571427Y-56288152D01*
X172571427Y-56288152D02*
X172428570Y-56288152D01*
X172428570Y-56288152D02*
X172333332Y-56335771D01*
X172333332Y-56335771D02*
X172285713Y-56383390D01*
X172285713Y-56383390D02*
X172238094Y-56478628D01*
X172238094Y-56478628D02*
X172238094Y-56764342D01*
X172238094Y-56764342D02*
X172285713Y-56859580D01*
X172285713Y-56859580D02*
X172333332Y-56907200D01*
X172333332Y-56907200D02*
X172428570Y-56954819D01*
X172428570Y-56954819D02*
X172571427Y-56954819D01*
X178523808Y-57954819D02*
X177857142Y-58954819D01*
X177857142Y-57954819D02*
X178523808Y-58954819D01*
X177476189Y-58954819D02*
X177476189Y-57954819D01*
X177047618Y-58669104D02*
X176571428Y-58669104D01*
X177142856Y-58954819D02*
X176809523Y-57954819D01*
X176809523Y-57954819D02*
X176476190Y-58954819D01*
X175952380Y-57954819D02*
X175761904Y-57954819D01*
X175761904Y-57954819D02*
X175666666Y-58002438D01*
X175666666Y-58002438D02*
X175571428Y-58097676D01*
X175571428Y-58097676D02*
X175523809Y-58288152D01*
X175523809Y-58288152D02*
X175523809Y-58621485D01*
X175523809Y-58621485D02*
X175571428Y-58811961D01*
X175571428Y-58811961D02*
X175666666Y-58907200D01*
X175666666Y-58907200D02*
X175761904Y-58954819D01*
X175761904Y-58954819D02*
X175952380Y-58954819D01*
X175952380Y-58954819D02*
X176047618Y-58907200D01*
X176047618Y-58907200D02*
X176142856Y-58811961D01*
X176142856Y-58811961D02*
X176190475Y-58621485D01*
X176190475Y-58621485D02*
X176190475Y-58288152D01*
X176190475Y-58288152D02*
X176142856Y-58097676D01*
X176142856Y-58097676D02*
X176047618Y-58002438D01*
X176047618Y-58002438D02*
X175952380Y-57954819D01*
%TO.C,U1*%
D12*
X168100000Y-66500000D02*
X168100000Y-49500000D01*
X170100000Y-47500910D02*
X183900000Y-47500910D01*
X172500000Y-46075970D02*
X172500000Y-53429270D01*
X172500000Y-53429270D02*
X181500000Y-53429270D01*
X181500000Y-46075970D02*
X172500000Y-46075970D01*
X181500000Y-53429270D02*
X181500000Y-46075970D01*
X183900000Y-68500000D02*
X170100000Y-68500000D01*
X185900000Y-49500000D02*
X185900000Y-66500000D01*
D13*
X168100000Y-49500000D02*
G75*
G02*
X170100000Y-47500000I2044610J-44610D01*
G01*
X170100000Y-68500000D02*
G75*
G02*
X168100000Y-66500000I0J2000000D01*
G01*
X183900000Y-47500000D02*
G75*
G02*
X185900000Y-49500000I-44612J-2044612D01*
G01*
X185900000Y-66500000D02*
G75*
G02*
X183900000Y-68500000I-2044857J44857D01*
G01*
D14*
X188127000Y-49200000D02*
G75*
G02*
X187873000Y-49200000I-127000J0D01*
G01*
X187873000Y-49200000D02*
G75*
G02*
X188127000Y-49200000I127000J0D01*
G01*
D15*
X185887715Y-49438295D02*
X185884667Y-49389527D01*
X185880603Y-49340506D01*
X185887715Y-49438295D01*
X168110508Y-66521574D02*
X168112287Y-66570850D01*
X168115335Y-66619618D01*
X168119399Y-66668639D01*
X168124732Y-66717407D01*
X168131336Y-66766175D01*
X168138956Y-66814690D01*
X168147847Y-66862950D01*
X168157752Y-66910955D01*
X168110508Y-66521574D01*
%TD*%
M02*
