%TF.GenerationSoftware,KiCad,Pcbnew,10.0.3*%
%TF.CreationDate,2026-06-11T11:39:53-06:00*%
%TF.ProjectId,project_files,70726f6a-6563-4745-9f66-696c65732e6b,rev?*%
%TF.SameCoordinates,Original*%
%TF.FileFunction,Legend,Top*%
%TF.FilePolarity,Positive*%
%FSLAX46Y46*%
G04 Gerber Fmt 4.6, Leading zero omitted, Abs format (unit mm)*
G04 Created by KiCad (PCBNEW 10.0.3) date 2026-06-11 11:39:53*
%MOMM*%
%LPD*%
G01*
G04 APERTURE LIST*
%ADD10C,0.150000*%
%ADD11C,0.120000*%
%ADD12C,0.040000*%
G04 APERTURE END LIST*
D10*
X136410116Y-119982862D02*
X136410116Y-118982862D01*
X136410116Y-118982862D02*
X136648211Y-118982862D01*
X136648211Y-118982862D02*
X136791068Y-119030481D01*
X136791068Y-119030481D02*
X136886306Y-119125719D01*
X136886306Y-119125719D02*
X136933925Y-119220957D01*
X136933925Y-119220957D02*
X136981544Y-119411433D01*
X136981544Y-119411433D02*
X136981544Y-119554290D01*
X136981544Y-119554290D02*
X136933925Y-119744766D01*
X136933925Y-119744766D02*
X136886306Y-119840004D01*
X136886306Y-119840004D02*
X136791068Y-119935243D01*
X136791068Y-119935243D02*
X136648211Y-119982862D01*
X136648211Y-119982862D02*
X136410116Y-119982862D01*
X137552973Y-119411433D02*
X137457735Y-119363814D01*
X137457735Y-119363814D02*
X137410116Y-119316195D01*
X137410116Y-119316195D02*
X137362497Y-119220957D01*
X137362497Y-119220957D02*
X137362497Y-119173338D01*
X137362497Y-119173338D02*
X137410116Y-119078100D01*
X137410116Y-119078100D02*
X137457735Y-119030481D01*
X137457735Y-119030481D02*
X137552973Y-118982862D01*
X137552973Y-118982862D02*
X137743449Y-118982862D01*
X137743449Y-118982862D02*
X137838687Y-119030481D01*
X137838687Y-119030481D02*
X137886306Y-119078100D01*
X137886306Y-119078100D02*
X137933925Y-119173338D01*
X137933925Y-119173338D02*
X137933925Y-119220957D01*
X137933925Y-119220957D02*
X137886306Y-119316195D01*
X137886306Y-119316195D02*
X137838687Y-119363814D01*
X137838687Y-119363814D02*
X137743449Y-119411433D01*
X137743449Y-119411433D02*
X137552973Y-119411433D01*
X137552973Y-119411433D02*
X137457735Y-119459052D01*
X137457735Y-119459052D02*
X137410116Y-119506671D01*
X137410116Y-119506671D02*
X137362497Y-119601909D01*
X137362497Y-119601909D02*
X137362497Y-119792385D01*
X137362497Y-119792385D02*
X137410116Y-119887623D01*
X137410116Y-119887623D02*
X137457735Y-119935243D01*
X137457735Y-119935243D02*
X137552973Y-119982862D01*
X137552973Y-119982862D02*
X137743449Y-119982862D01*
X137743449Y-119982862D02*
X137838687Y-119935243D01*
X137838687Y-119935243D02*
X137886306Y-119887623D01*
X137886306Y-119887623D02*
X137933925Y-119792385D01*
X137933925Y-119792385D02*
X137933925Y-119601909D01*
X137933925Y-119601909D02*
X137886306Y-119506671D01*
X137886306Y-119506671D02*
X137838687Y-119459052D01*
X137838687Y-119459052D02*
X137743449Y-119411433D01*
X140696306Y-119662862D02*
X140696306Y-118662862D01*
X141267734Y-119662862D02*
X140839163Y-119091433D01*
X141267734Y-118662862D02*
X140696306Y-119234290D01*
X164469997Y-128945379D02*
X164612854Y-128992998D01*
X164612854Y-128992998D02*
X164850949Y-128992998D01*
X164850949Y-128992998D02*
X164946187Y-128945379D01*
X164946187Y-128945379D02*
X164993806Y-128897759D01*
X164993806Y-128897759D02*
X165041425Y-128802521D01*
X165041425Y-128802521D02*
X165041425Y-128707283D01*
X165041425Y-128707283D02*
X164993806Y-128612045D01*
X164993806Y-128612045D02*
X164946187Y-128564426D01*
X164946187Y-128564426D02*
X164850949Y-128516807D01*
X164850949Y-128516807D02*
X164660473Y-128469188D01*
X164660473Y-128469188D02*
X164565235Y-128421569D01*
X164565235Y-128421569D02*
X164517616Y-128373950D01*
X164517616Y-128373950D02*
X164469997Y-128278712D01*
X164469997Y-128278712D02*
X164469997Y-128183474D01*
X164469997Y-128183474D02*
X164517616Y-128088236D01*
X164517616Y-128088236D02*
X164565235Y-128040617D01*
X164565235Y-128040617D02*
X164660473Y-127992998D01*
X164660473Y-127992998D02*
X164898568Y-127992998D01*
X164898568Y-127992998D02*
X165041425Y-128040617D01*
X165374759Y-127992998D02*
X165612854Y-128992998D01*
X165612854Y-128992998D02*
X165803330Y-128278712D01*
X165803330Y-128278712D02*
X165993806Y-128992998D01*
X165993806Y-128992998D02*
X166231902Y-127992998D01*
X167089044Y-127992998D02*
X166612854Y-127992998D01*
X166612854Y-127992998D02*
X166565235Y-128469188D01*
X166565235Y-128469188D02*
X166612854Y-128421569D01*
X166612854Y-128421569D02*
X166708092Y-128373950D01*
X166708092Y-128373950D02*
X166946187Y-128373950D01*
X166946187Y-128373950D02*
X167041425Y-128421569D01*
X167041425Y-128421569D02*
X167089044Y-128469188D01*
X167089044Y-128469188D02*
X167136663Y-128564426D01*
X167136663Y-128564426D02*
X167136663Y-128802521D01*
X167136663Y-128802521D02*
X167089044Y-128897759D01*
X167089044Y-128897759D02*
X167041425Y-128945379D01*
X167041425Y-128945379D02*
X166946187Y-128992998D01*
X166946187Y-128992998D02*
X166708092Y-128992998D01*
X166708092Y-128992998D02*
X166612854Y-128945379D01*
X166612854Y-128945379D02*
X166565235Y-128897759D01*
X183658925Y-148557862D02*
X183658925Y-147557862D01*
X183658925Y-147557862D02*
X183897020Y-147557862D01*
X183897020Y-147557862D02*
X184039877Y-147605481D01*
X184039877Y-147605481D02*
X184135115Y-147700719D01*
X184135115Y-147700719D02*
X184182734Y-147795957D01*
X184182734Y-147795957D02*
X184230353Y-147986433D01*
X184230353Y-147986433D02*
X184230353Y-148129290D01*
X184230353Y-148129290D02*
X184182734Y-148319766D01*
X184182734Y-148319766D02*
X184135115Y-148415004D01*
X184135115Y-148415004D02*
X184039877Y-148510243D01*
X184039877Y-148510243D02*
X183897020Y-148557862D01*
X183897020Y-148557862D02*
X183658925Y-148557862D01*
X185182734Y-148557862D02*
X184611306Y-148557862D01*
X184897020Y-148557862D02*
X184897020Y-147557862D01*
X184897020Y-147557862D02*
X184801782Y-147700719D01*
X184801782Y-147700719D02*
X184706544Y-147795957D01*
X184706544Y-147795957D02*
X184611306Y-147843576D01*
X185658925Y-148557862D02*
X185849401Y-148557862D01*
X185849401Y-148557862D02*
X185944639Y-148510243D01*
X185944639Y-148510243D02*
X185992258Y-148462623D01*
X185992258Y-148462623D02*
X186087496Y-148319766D01*
X186087496Y-148319766D02*
X186135115Y-148129290D01*
X186135115Y-148129290D02*
X186135115Y-147748338D01*
X186135115Y-147748338D02*
X186087496Y-147653100D01*
X186087496Y-147653100D02*
X186039877Y-147605481D01*
X186039877Y-147605481D02*
X185944639Y-147557862D01*
X185944639Y-147557862D02*
X185754163Y-147557862D01*
X185754163Y-147557862D02*
X185658925Y-147605481D01*
X185658925Y-147605481D02*
X185611306Y-147653100D01*
X185611306Y-147653100D02*
X185563687Y-147748338D01*
X185563687Y-147748338D02*
X185563687Y-147986433D01*
X185563687Y-147986433D02*
X185611306Y-148081671D01*
X185611306Y-148081671D02*
X185658925Y-148129290D01*
X185658925Y-148129290D02*
X185754163Y-148176909D01*
X185754163Y-148176909D02*
X185944639Y-148176909D01*
X185944639Y-148176909D02*
X186039877Y-148129290D01*
X186039877Y-148129290D02*
X186087496Y-148081671D01*
X186087496Y-148081671D02*
X186135115Y-147986433D01*
X188421306Y-148237862D02*
X188421306Y-147237862D01*
X188992734Y-148237862D02*
X188564163Y-147666433D01*
X188992734Y-147237862D02*
X188421306Y-147809290D01*
X106758215Y-48025551D02*
X106901072Y-48073170D01*
X106901072Y-48073170D02*
X107139167Y-48073170D01*
X107139167Y-48073170D02*
X107234405Y-48025551D01*
X107234405Y-48025551D02*
X107282024Y-47977931D01*
X107282024Y-47977931D02*
X107329643Y-47882693D01*
X107329643Y-47882693D02*
X107329643Y-47787455D01*
X107329643Y-47787455D02*
X107282024Y-47692217D01*
X107282024Y-47692217D02*
X107234405Y-47644598D01*
X107234405Y-47644598D02*
X107139167Y-47596979D01*
X107139167Y-47596979D02*
X106948691Y-47549360D01*
X106948691Y-47549360D02*
X106853453Y-47501741D01*
X106853453Y-47501741D02*
X106805834Y-47454122D01*
X106805834Y-47454122D02*
X106758215Y-47358884D01*
X106758215Y-47358884D02*
X106758215Y-47263646D01*
X106758215Y-47263646D02*
X106805834Y-47168408D01*
X106805834Y-47168408D02*
X106853453Y-47120789D01*
X106853453Y-47120789D02*
X106948691Y-47073170D01*
X106948691Y-47073170D02*
X107186786Y-47073170D01*
X107186786Y-47073170D02*
X107329643Y-47120789D01*
X107662977Y-47073170D02*
X107901072Y-48073170D01*
X107901072Y-48073170D02*
X108091548Y-47358884D01*
X108091548Y-47358884D02*
X108282024Y-48073170D01*
X108282024Y-48073170D02*
X108520120Y-47073170D01*
X109424881Y-48073170D02*
X108853453Y-48073170D01*
X109139167Y-48073170D02*
X109139167Y-47073170D01*
X109139167Y-47073170D02*
X109043929Y-47216027D01*
X109043929Y-47216027D02*
X108948691Y-47311265D01*
X108948691Y-47311265D02*
X108853453Y-47358884D01*
X110377262Y-48073170D02*
X109805834Y-48073170D01*
X110091548Y-48073170D02*
X110091548Y-47073170D01*
X110091548Y-47073170D02*
X109996310Y-47216027D01*
X109996310Y-47216027D02*
X109901072Y-47311265D01*
X109901072Y-47311265D02*
X109805834Y-47358884D01*
X135413334Y-76554687D02*
X135556191Y-76602306D01*
X135556191Y-76602306D02*
X135794286Y-76602306D01*
X135794286Y-76602306D02*
X135889524Y-76554687D01*
X135889524Y-76554687D02*
X135937143Y-76507067D01*
X135937143Y-76507067D02*
X135984762Y-76411829D01*
X135984762Y-76411829D02*
X135984762Y-76316591D01*
X135984762Y-76316591D02*
X135937143Y-76221353D01*
X135937143Y-76221353D02*
X135889524Y-76173734D01*
X135889524Y-76173734D02*
X135794286Y-76126115D01*
X135794286Y-76126115D02*
X135603810Y-76078496D01*
X135603810Y-76078496D02*
X135508572Y-76030877D01*
X135508572Y-76030877D02*
X135460953Y-75983258D01*
X135460953Y-75983258D02*
X135413334Y-75888020D01*
X135413334Y-75888020D02*
X135413334Y-75792782D01*
X135413334Y-75792782D02*
X135460953Y-75697544D01*
X135460953Y-75697544D02*
X135508572Y-75649925D01*
X135508572Y-75649925D02*
X135603810Y-75602306D01*
X135603810Y-75602306D02*
X135841905Y-75602306D01*
X135841905Y-75602306D02*
X135984762Y-75649925D01*
X136318096Y-75602306D02*
X136556191Y-76602306D01*
X136556191Y-76602306D02*
X136746667Y-75888020D01*
X136746667Y-75888020D02*
X136937143Y-76602306D01*
X136937143Y-76602306D02*
X137175239Y-75602306D01*
X138080000Y-76602306D02*
X137508572Y-76602306D01*
X137794286Y-76602306D02*
X137794286Y-75602306D01*
X137794286Y-75602306D02*
X137699048Y-75745163D01*
X137699048Y-75745163D02*
X137603810Y-75840401D01*
X137603810Y-75840401D02*
X137508572Y-75888020D01*
X138556191Y-76602306D02*
X138746667Y-76602306D01*
X138746667Y-76602306D02*
X138841905Y-76554687D01*
X138841905Y-76554687D02*
X138889524Y-76507067D01*
X138889524Y-76507067D02*
X138984762Y-76364210D01*
X138984762Y-76364210D02*
X139032381Y-76173734D01*
X139032381Y-76173734D02*
X139032381Y-75792782D01*
X139032381Y-75792782D02*
X138984762Y-75697544D01*
X138984762Y-75697544D02*
X138937143Y-75649925D01*
X138937143Y-75649925D02*
X138841905Y-75602306D01*
X138841905Y-75602306D02*
X138651429Y-75602306D01*
X138651429Y-75602306D02*
X138556191Y-75649925D01*
X138556191Y-75649925D02*
X138508572Y-75697544D01*
X138508572Y-75697544D02*
X138460953Y-75792782D01*
X138460953Y-75792782D02*
X138460953Y-76030877D01*
X138460953Y-76030877D02*
X138508572Y-76126115D01*
X138508572Y-76126115D02*
X138556191Y-76173734D01*
X138556191Y-76173734D02*
X138651429Y-76221353D01*
X138651429Y-76221353D02*
X138841905Y-76221353D01*
X138841905Y-76221353D02*
X138937143Y-76173734D01*
X138937143Y-76173734D02*
X138984762Y-76126115D01*
X138984762Y-76126115D02*
X139032381Y-76030877D01*
X107239878Y-128991243D02*
X107382735Y-129038862D01*
X107382735Y-129038862D02*
X107620830Y-129038862D01*
X107620830Y-129038862D02*
X107716068Y-128991243D01*
X107716068Y-128991243D02*
X107763687Y-128943623D01*
X107763687Y-128943623D02*
X107811306Y-128848385D01*
X107811306Y-128848385D02*
X107811306Y-128753147D01*
X107811306Y-128753147D02*
X107763687Y-128657909D01*
X107763687Y-128657909D02*
X107716068Y-128610290D01*
X107716068Y-128610290D02*
X107620830Y-128562671D01*
X107620830Y-128562671D02*
X107430354Y-128515052D01*
X107430354Y-128515052D02*
X107335116Y-128467433D01*
X107335116Y-128467433D02*
X107287497Y-128419814D01*
X107287497Y-128419814D02*
X107239878Y-128324576D01*
X107239878Y-128324576D02*
X107239878Y-128229338D01*
X107239878Y-128229338D02*
X107287497Y-128134100D01*
X107287497Y-128134100D02*
X107335116Y-128086481D01*
X107335116Y-128086481D02*
X107430354Y-128038862D01*
X107430354Y-128038862D02*
X107668449Y-128038862D01*
X107668449Y-128038862D02*
X107811306Y-128086481D01*
X108144640Y-128038862D02*
X108382735Y-129038862D01*
X108382735Y-129038862D02*
X108573211Y-128324576D01*
X108573211Y-128324576D02*
X108763687Y-129038862D01*
X108763687Y-129038862D02*
X109001783Y-128038862D01*
X109525592Y-128467433D02*
X109430354Y-128419814D01*
X109430354Y-128419814D02*
X109382735Y-128372195D01*
X109382735Y-128372195D02*
X109335116Y-128276957D01*
X109335116Y-128276957D02*
X109335116Y-128229338D01*
X109335116Y-128229338D02*
X109382735Y-128134100D01*
X109382735Y-128134100D02*
X109430354Y-128086481D01*
X109430354Y-128086481D02*
X109525592Y-128038862D01*
X109525592Y-128038862D02*
X109716068Y-128038862D01*
X109716068Y-128038862D02*
X109811306Y-128086481D01*
X109811306Y-128086481D02*
X109858925Y-128134100D01*
X109858925Y-128134100D02*
X109906544Y-128229338D01*
X109906544Y-128229338D02*
X109906544Y-128276957D01*
X109906544Y-128276957D02*
X109858925Y-128372195D01*
X109858925Y-128372195D02*
X109811306Y-128419814D01*
X109811306Y-128419814D02*
X109716068Y-128467433D01*
X109716068Y-128467433D02*
X109525592Y-128467433D01*
X109525592Y-128467433D02*
X109430354Y-128515052D01*
X109430354Y-128515052D02*
X109382735Y-128562671D01*
X109382735Y-128562671D02*
X109335116Y-128657909D01*
X109335116Y-128657909D02*
X109335116Y-128848385D01*
X109335116Y-128848385D02*
X109382735Y-128943623D01*
X109382735Y-128943623D02*
X109430354Y-128991243D01*
X109430354Y-128991243D02*
X109525592Y-129038862D01*
X109525592Y-129038862D02*
X109716068Y-129038862D01*
X109716068Y-129038862D02*
X109811306Y-128991243D01*
X109811306Y-128991243D02*
X109858925Y-128943623D01*
X109858925Y-128943623D02*
X109906544Y-128848385D01*
X109906544Y-128848385D02*
X109906544Y-128657909D01*
X109906544Y-128657909D02*
X109858925Y-128562671D01*
X109858925Y-128562671D02*
X109811306Y-128515052D01*
X109811306Y-128515052D02*
X109716068Y-128467433D01*
X116953453Y-96167170D02*
X116953453Y-95167170D01*
X116953453Y-95167170D02*
X117191548Y-95167170D01*
X117191548Y-95167170D02*
X117334405Y-95214789D01*
X117334405Y-95214789D02*
X117429643Y-95310027D01*
X117429643Y-95310027D02*
X117477262Y-95405265D01*
X117477262Y-95405265D02*
X117524881Y-95595741D01*
X117524881Y-95595741D02*
X117524881Y-95738598D01*
X117524881Y-95738598D02*
X117477262Y-95929074D01*
X117477262Y-95929074D02*
X117429643Y-96024312D01*
X117429643Y-96024312D02*
X117334405Y-96119551D01*
X117334405Y-96119551D02*
X117191548Y-96167170D01*
X117191548Y-96167170D02*
X116953453Y-96167170D01*
X117905834Y-95262408D02*
X117953453Y-95214789D01*
X117953453Y-95214789D02*
X118048691Y-95167170D01*
X118048691Y-95167170D02*
X118286786Y-95167170D01*
X118286786Y-95167170D02*
X118382024Y-95214789D01*
X118382024Y-95214789D02*
X118429643Y-95262408D01*
X118429643Y-95262408D02*
X118477262Y-95357646D01*
X118477262Y-95357646D02*
X118477262Y-95452884D01*
X118477262Y-95452884D02*
X118429643Y-95595741D01*
X118429643Y-95595741D02*
X117858215Y-96167170D01*
X117858215Y-96167170D02*
X118477262Y-96167170D01*
X119096310Y-95167170D02*
X119191548Y-95167170D01*
X119191548Y-95167170D02*
X119286786Y-95214789D01*
X119286786Y-95214789D02*
X119334405Y-95262408D01*
X119334405Y-95262408D02*
X119382024Y-95357646D01*
X119382024Y-95357646D02*
X119429643Y-95548122D01*
X119429643Y-95548122D02*
X119429643Y-95786217D01*
X119429643Y-95786217D02*
X119382024Y-95976693D01*
X119382024Y-95976693D02*
X119334405Y-96071931D01*
X119334405Y-96071931D02*
X119286786Y-96119551D01*
X119286786Y-96119551D02*
X119191548Y-96167170D01*
X119191548Y-96167170D02*
X119096310Y-96167170D01*
X119096310Y-96167170D02*
X119001072Y-96119551D01*
X119001072Y-96119551D02*
X118953453Y-96071931D01*
X118953453Y-96071931D02*
X118905834Y-95976693D01*
X118905834Y-95976693D02*
X118858215Y-95786217D01*
X118858215Y-95786217D02*
X118858215Y-95548122D01*
X118858215Y-95548122D02*
X118905834Y-95357646D01*
X118905834Y-95357646D02*
X118953453Y-95262408D01*
X118953453Y-95262408D02*
X119001072Y-95214789D01*
X119001072Y-95214789D02*
X119096310Y-95167170D01*
X121715834Y-95847170D02*
X121715834Y-94847170D01*
X122287262Y-95847170D02*
X121858691Y-95275741D01*
X122287262Y-94847170D02*
X121715834Y-95418598D01*
X174073925Y-119982862D02*
X174073925Y-118982862D01*
X174073925Y-118982862D02*
X174312020Y-118982862D01*
X174312020Y-118982862D02*
X174454877Y-119030481D01*
X174454877Y-119030481D02*
X174550115Y-119125719D01*
X174550115Y-119125719D02*
X174597734Y-119220957D01*
X174597734Y-119220957D02*
X174645353Y-119411433D01*
X174645353Y-119411433D02*
X174645353Y-119554290D01*
X174645353Y-119554290D02*
X174597734Y-119744766D01*
X174597734Y-119744766D02*
X174550115Y-119840004D01*
X174550115Y-119840004D02*
X174454877Y-119935243D01*
X174454877Y-119935243D02*
X174312020Y-119982862D01*
X174312020Y-119982862D02*
X174073925Y-119982862D01*
X175597734Y-119982862D02*
X175026306Y-119982862D01*
X175312020Y-119982862D02*
X175312020Y-118982862D01*
X175312020Y-118982862D02*
X175216782Y-119125719D01*
X175216782Y-119125719D02*
X175121544Y-119220957D01*
X175121544Y-119220957D02*
X175026306Y-119268576D01*
X175931068Y-118982862D02*
X176550115Y-118982862D01*
X176550115Y-118982862D02*
X176216782Y-119363814D01*
X176216782Y-119363814D02*
X176359639Y-119363814D01*
X176359639Y-119363814D02*
X176454877Y-119411433D01*
X176454877Y-119411433D02*
X176502496Y-119459052D01*
X176502496Y-119459052D02*
X176550115Y-119554290D01*
X176550115Y-119554290D02*
X176550115Y-119792385D01*
X176550115Y-119792385D02*
X176502496Y-119887623D01*
X176502496Y-119887623D02*
X176454877Y-119935243D01*
X176454877Y-119935243D02*
X176359639Y-119982862D01*
X176359639Y-119982862D02*
X176073925Y-119982862D01*
X176073925Y-119982862D02*
X175978687Y-119935243D01*
X175978687Y-119935243D02*
X175931068Y-119887623D01*
X178836306Y-119662862D02*
X178836306Y-118662862D01*
X179407734Y-119662862D02*
X178979163Y-119091433D01*
X179407734Y-118662862D02*
X178836306Y-119234290D01*
X125808215Y-48025551D02*
X125951072Y-48073170D01*
X125951072Y-48073170D02*
X126189167Y-48073170D01*
X126189167Y-48073170D02*
X126284405Y-48025551D01*
X126284405Y-48025551D02*
X126332024Y-47977931D01*
X126332024Y-47977931D02*
X126379643Y-47882693D01*
X126379643Y-47882693D02*
X126379643Y-47787455D01*
X126379643Y-47787455D02*
X126332024Y-47692217D01*
X126332024Y-47692217D02*
X126284405Y-47644598D01*
X126284405Y-47644598D02*
X126189167Y-47596979D01*
X126189167Y-47596979D02*
X125998691Y-47549360D01*
X125998691Y-47549360D02*
X125903453Y-47501741D01*
X125903453Y-47501741D02*
X125855834Y-47454122D01*
X125855834Y-47454122D02*
X125808215Y-47358884D01*
X125808215Y-47358884D02*
X125808215Y-47263646D01*
X125808215Y-47263646D02*
X125855834Y-47168408D01*
X125855834Y-47168408D02*
X125903453Y-47120789D01*
X125903453Y-47120789D02*
X125998691Y-47073170D01*
X125998691Y-47073170D02*
X126236786Y-47073170D01*
X126236786Y-47073170D02*
X126379643Y-47120789D01*
X126712977Y-47073170D02*
X126951072Y-48073170D01*
X126951072Y-48073170D02*
X127141548Y-47358884D01*
X127141548Y-47358884D02*
X127332024Y-48073170D01*
X127332024Y-48073170D02*
X127570120Y-47073170D01*
X128474881Y-48073170D02*
X127903453Y-48073170D01*
X128189167Y-48073170D02*
X128189167Y-47073170D01*
X128189167Y-47073170D02*
X128093929Y-47216027D01*
X128093929Y-47216027D02*
X127998691Y-47311265D01*
X127998691Y-47311265D02*
X127903453Y-47358884D01*
X128808215Y-47073170D02*
X129474881Y-47073170D01*
X129474881Y-47073170D02*
X129046310Y-48073170D01*
X125813687Y-128991243D02*
X125956544Y-129038862D01*
X125956544Y-129038862D02*
X126194639Y-129038862D01*
X126194639Y-129038862D02*
X126289877Y-128991243D01*
X126289877Y-128991243D02*
X126337496Y-128943623D01*
X126337496Y-128943623D02*
X126385115Y-128848385D01*
X126385115Y-128848385D02*
X126385115Y-128753147D01*
X126385115Y-128753147D02*
X126337496Y-128657909D01*
X126337496Y-128657909D02*
X126289877Y-128610290D01*
X126289877Y-128610290D02*
X126194639Y-128562671D01*
X126194639Y-128562671D02*
X126004163Y-128515052D01*
X126004163Y-128515052D02*
X125908925Y-128467433D01*
X125908925Y-128467433D02*
X125861306Y-128419814D01*
X125861306Y-128419814D02*
X125813687Y-128324576D01*
X125813687Y-128324576D02*
X125813687Y-128229338D01*
X125813687Y-128229338D02*
X125861306Y-128134100D01*
X125861306Y-128134100D02*
X125908925Y-128086481D01*
X125908925Y-128086481D02*
X126004163Y-128038862D01*
X126004163Y-128038862D02*
X126242258Y-128038862D01*
X126242258Y-128038862D02*
X126385115Y-128086481D01*
X126718449Y-128038862D02*
X126956544Y-129038862D01*
X126956544Y-129038862D02*
X127147020Y-128324576D01*
X127147020Y-128324576D02*
X127337496Y-129038862D01*
X127337496Y-129038862D02*
X127575592Y-128038862D01*
X128480353Y-129038862D02*
X127908925Y-129038862D01*
X128194639Y-129038862D02*
X128194639Y-128038862D01*
X128194639Y-128038862D02*
X128099401Y-128181719D01*
X128099401Y-128181719D02*
X128004163Y-128276957D01*
X128004163Y-128276957D02*
X127908925Y-128324576D01*
X128861306Y-128134100D02*
X128908925Y-128086481D01*
X128908925Y-128086481D02*
X129004163Y-128038862D01*
X129004163Y-128038862D02*
X129242258Y-128038862D01*
X129242258Y-128038862D02*
X129337496Y-128086481D01*
X129337496Y-128086481D02*
X129385115Y-128134100D01*
X129385115Y-128134100D02*
X129432734Y-128229338D01*
X129432734Y-128229338D02*
X129432734Y-128324576D01*
X129432734Y-128324576D02*
X129385115Y-128467433D01*
X129385115Y-128467433D02*
X128813687Y-129038862D01*
X128813687Y-129038862D02*
X129432734Y-129038862D01*
X173914878Y-100416243D02*
X174057735Y-100463862D01*
X174057735Y-100463862D02*
X174295830Y-100463862D01*
X174295830Y-100463862D02*
X174391068Y-100416243D01*
X174391068Y-100416243D02*
X174438687Y-100368623D01*
X174438687Y-100368623D02*
X174486306Y-100273385D01*
X174486306Y-100273385D02*
X174486306Y-100178147D01*
X174486306Y-100178147D02*
X174438687Y-100082909D01*
X174438687Y-100082909D02*
X174391068Y-100035290D01*
X174391068Y-100035290D02*
X174295830Y-99987671D01*
X174295830Y-99987671D02*
X174105354Y-99940052D01*
X174105354Y-99940052D02*
X174010116Y-99892433D01*
X174010116Y-99892433D02*
X173962497Y-99844814D01*
X173962497Y-99844814D02*
X173914878Y-99749576D01*
X173914878Y-99749576D02*
X173914878Y-99654338D01*
X173914878Y-99654338D02*
X173962497Y-99559100D01*
X173962497Y-99559100D02*
X174010116Y-99511481D01*
X174010116Y-99511481D02*
X174105354Y-99463862D01*
X174105354Y-99463862D02*
X174343449Y-99463862D01*
X174343449Y-99463862D02*
X174486306Y-99511481D01*
X174819640Y-99463862D02*
X175057735Y-100463862D01*
X175057735Y-100463862D02*
X175248211Y-99749576D01*
X175248211Y-99749576D02*
X175438687Y-100463862D01*
X175438687Y-100463862D02*
X175676783Y-99463862D01*
X175962497Y-99463862D02*
X176629163Y-99463862D01*
X176629163Y-99463862D02*
X176200592Y-100463862D01*
X145448925Y-148557862D02*
X145448925Y-147557862D01*
X145448925Y-147557862D02*
X145687020Y-147557862D01*
X145687020Y-147557862D02*
X145829877Y-147605481D01*
X145829877Y-147605481D02*
X145925115Y-147700719D01*
X145925115Y-147700719D02*
X145972734Y-147795957D01*
X145972734Y-147795957D02*
X146020353Y-147986433D01*
X146020353Y-147986433D02*
X146020353Y-148129290D01*
X146020353Y-148129290D02*
X145972734Y-148319766D01*
X145972734Y-148319766D02*
X145925115Y-148415004D01*
X145925115Y-148415004D02*
X145829877Y-148510243D01*
X145829877Y-148510243D02*
X145687020Y-148557862D01*
X145687020Y-148557862D02*
X145448925Y-148557862D01*
X146972734Y-148557862D02*
X146401306Y-148557862D01*
X146687020Y-148557862D02*
X146687020Y-147557862D01*
X146687020Y-147557862D02*
X146591782Y-147700719D01*
X146591782Y-147700719D02*
X146496544Y-147795957D01*
X146496544Y-147795957D02*
X146401306Y-147843576D01*
X147544163Y-147986433D02*
X147448925Y-147938814D01*
X147448925Y-147938814D02*
X147401306Y-147891195D01*
X147401306Y-147891195D02*
X147353687Y-147795957D01*
X147353687Y-147795957D02*
X147353687Y-147748338D01*
X147353687Y-147748338D02*
X147401306Y-147653100D01*
X147401306Y-147653100D02*
X147448925Y-147605481D01*
X147448925Y-147605481D02*
X147544163Y-147557862D01*
X147544163Y-147557862D02*
X147734639Y-147557862D01*
X147734639Y-147557862D02*
X147829877Y-147605481D01*
X147829877Y-147605481D02*
X147877496Y-147653100D01*
X147877496Y-147653100D02*
X147925115Y-147748338D01*
X147925115Y-147748338D02*
X147925115Y-147795957D01*
X147925115Y-147795957D02*
X147877496Y-147891195D01*
X147877496Y-147891195D02*
X147829877Y-147938814D01*
X147829877Y-147938814D02*
X147734639Y-147986433D01*
X147734639Y-147986433D02*
X147544163Y-147986433D01*
X147544163Y-147986433D02*
X147448925Y-148034052D01*
X147448925Y-148034052D02*
X147401306Y-148081671D01*
X147401306Y-148081671D02*
X147353687Y-148176909D01*
X147353687Y-148176909D02*
X147353687Y-148367385D01*
X147353687Y-148367385D02*
X147401306Y-148462623D01*
X147401306Y-148462623D02*
X147448925Y-148510243D01*
X147448925Y-148510243D02*
X147544163Y-148557862D01*
X147544163Y-148557862D02*
X147734639Y-148557862D01*
X147734639Y-148557862D02*
X147829877Y-148510243D01*
X147829877Y-148510243D02*
X147877496Y-148462623D01*
X147877496Y-148462623D02*
X147925115Y-148367385D01*
X147925115Y-148367385D02*
X147925115Y-148176909D01*
X147925115Y-148176909D02*
X147877496Y-148081671D01*
X147877496Y-148081671D02*
X147829877Y-148034052D01*
X147829877Y-148034052D02*
X147734639Y-147986433D01*
X150211306Y-148237862D02*
X150211306Y-147237862D01*
X150782734Y-148237862D02*
X150354163Y-147666433D01*
X150782734Y-147237862D02*
X150211306Y-147809290D01*
X107353453Y-67592170D02*
X107353453Y-66592170D01*
X107353453Y-66592170D02*
X107591548Y-66592170D01*
X107591548Y-66592170D02*
X107734405Y-66639789D01*
X107734405Y-66639789D02*
X107829643Y-66735027D01*
X107829643Y-66735027D02*
X107877262Y-66830265D01*
X107877262Y-66830265D02*
X107924881Y-67020741D01*
X107924881Y-67020741D02*
X107924881Y-67163598D01*
X107924881Y-67163598D02*
X107877262Y-67354074D01*
X107877262Y-67354074D02*
X107829643Y-67449312D01*
X107829643Y-67449312D02*
X107734405Y-67544551D01*
X107734405Y-67544551D02*
X107591548Y-67592170D01*
X107591548Y-67592170D02*
X107353453Y-67592170D01*
X108877262Y-67592170D02*
X108305834Y-67592170D01*
X108591548Y-67592170D02*
X108591548Y-66592170D01*
X108591548Y-66592170D02*
X108496310Y-66735027D01*
X108496310Y-66735027D02*
X108401072Y-66830265D01*
X108401072Y-66830265D02*
X108305834Y-66877884D01*
X109734405Y-66925503D02*
X109734405Y-67592170D01*
X109496310Y-66544551D02*
X109258215Y-67258836D01*
X109258215Y-67258836D02*
X109877262Y-67258836D01*
X112115834Y-67272170D02*
X112115834Y-66272170D01*
X112687262Y-67272170D02*
X112258691Y-66700741D01*
X112687262Y-66272170D02*
X112115834Y-66843598D01*
X144863687Y-128991243D02*
X145006544Y-129038862D01*
X145006544Y-129038862D02*
X145244639Y-129038862D01*
X145244639Y-129038862D02*
X145339877Y-128991243D01*
X145339877Y-128991243D02*
X145387496Y-128943623D01*
X145387496Y-128943623D02*
X145435115Y-128848385D01*
X145435115Y-128848385D02*
X145435115Y-128753147D01*
X145435115Y-128753147D02*
X145387496Y-128657909D01*
X145387496Y-128657909D02*
X145339877Y-128610290D01*
X145339877Y-128610290D02*
X145244639Y-128562671D01*
X145244639Y-128562671D02*
X145054163Y-128515052D01*
X145054163Y-128515052D02*
X144958925Y-128467433D01*
X144958925Y-128467433D02*
X144911306Y-128419814D01*
X144911306Y-128419814D02*
X144863687Y-128324576D01*
X144863687Y-128324576D02*
X144863687Y-128229338D01*
X144863687Y-128229338D02*
X144911306Y-128134100D01*
X144911306Y-128134100D02*
X144958925Y-128086481D01*
X144958925Y-128086481D02*
X145054163Y-128038862D01*
X145054163Y-128038862D02*
X145292258Y-128038862D01*
X145292258Y-128038862D02*
X145435115Y-128086481D01*
X145768449Y-128038862D02*
X146006544Y-129038862D01*
X146006544Y-129038862D02*
X146197020Y-128324576D01*
X146197020Y-128324576D02*
X146387496Y-129038862D01*
X146387496Y-129038862D02*
X146625592Y-128038862D01*
X147530353Y-129038862D02*
X146958925Y-129038862D01*
X147244639Y-129038862D02*
X147244639Y-128038862D01*
X147244639Y-128038862D02*
X147149401Y-128181719D01*
X147149401Y-128181719D02*
X147054163Y-128276957D01*
X147054163Y-128276957D02*
X146958925Y-128324576D01*
X148101782Y-128467433D02*
X148006544Y-128419814D01*
X148006544Y-128419814D02*
X147958925Y-128372195D01*
X147958925Y-128372195D02*
X147911306Y-128276957D01*
X147911306Y-128276957D02*
X147911306Y-128229338D01*
X147911306Y-128229338D02*
X147958925Y-128134100D01*
X147958925Y-128134100D02*
X148006544Y-128086481D01*
X148006544Y-128086481D02*
X148101782Y-128038862D01*
X148101782Y-128038862D02*
X148292258Y-128038862D01*
X148292258Y-128038862D02*
X148387496Y-128086481D01*
X148387496Y-128086481D02*
X148435115Y-128134100D01*
X148435115Y-128134100D02*
X148482734Y-128229338D01*
X148482734Y-128229338D02*
X148482734Y-128276957D01*
X148482734Y-128276957D02*
X148435115Y-128372195D01*
X148435115Y-128372195D02*
X148387496Y-128419814D01*
X148387496Y-128419814D02*
X148292258Y-128467433D01*
X148292258Y-128467433D02*
X148101782Y-128467433D01*
X148101782Y-128467433D02*
X148006544Y-128515052D01*
X148006544Y-128515052D02*
X147958925Y-128562671D01*
X147958925Y-128562671D02*
X147911306Y-128657909D01*
X147911306Y-128657909D02*
X147911306Y-128848385D01*
X147911306Y-128848385D02*
X147958925Y-128943623D01*
X147958925Y-128943623D02*
X148006544Y-128991243D01*
X148006544Y-128991243D02*
X148101782Y-129038862D01*
X148101782Y-129038862D02*
X148292258Y-129038862D01*
X148292258Y-129038862D02*
X148387496Y-128991243D01*
X148387496Y-128991243D02*
X148435115Y-128943623D01*
X148435115Y-128943623D02*
X148482734Y-128848385D01*
X148482734Y-128848385D02*
X148482734Y-128657909D01*
X148482734Y-128657909D02*
X148435115Y-128562671D01*
X148435115Y-128562671D02*
X148387496Y-128515052D01*
X148387496Y-128515052D02*
X148292258Y-128467433D01*
X165085116Y-148557862D02*
X165085116Y-147557862D01*
X165085116Y-147557862D02*
X165323211Y-147557862D01*
X165323211Y-147557862D02*
X165466068Y-147605481D01*
X165466068Y-147605481D02*
X165561306Y-147700719D01*
X165561306Y-147700719D02*
X165608925Y-147795957D01*
X165608925Y-147795957D02*
X165656544Y-147986433D01*
X165656544Y-147986433D02*
X165656544Y-148129290D01*
X165656544Y-148129290D02*
X165608925Y-148319766D01*
X165608925Y-148319766D02*
X165561306Y-148415004D01*
X165561306Y-148415004D02*
X165466068Y-148510243D01*
X165466068Y-148510243D02*
X165323211Y-148557862D01*
X165323211Y-148557862D02*
X165085116Y-148557862D01*
X166132735Y-148557862D02*
X166323211Y-148557862D01*
X166323211Y-148557862D02*
X166418449Y-148510243D01*
X166418449Y-148510243D02*
X166466068Y-148462623D01*
X166466068Y-148462623D02*
X166561306Y-148319766D01*
X166561306Y-148319766D02*
X166608925Y-148129290D01*
X166608925Y-148129290D02*
X166608925Y-147748338D01*
X166608925Y-147748338D02*
X166561306Y-147653100D01*
X166561306Y-147653100D02*
X166513687Y-147605481D01*
X166513687Y-147605481D02*
X166418449Y-147557862D01*
X166418449Y-147557862D02*
X166227973Y-147557862D01*
X166227973Y-147557862D02*
X166132735Y-147605481D01*
X166132735Y-147605481D02*
X166085116Y-147653100D01*
X166085116Y-147653100D02*
X166037497Y-147748338D01*
X166037497Y-147748338D02*
X166037497Y-147986433D01*
X166037497Y-147986433D02*
X166085116Y-148081671D01*
X166085116Y-148081671D02*
X166132735Y-148129290D01*
X166132735Y-148129290D02*
X166227973Y-148176909D01*
X166227973Y-148176909D02*
X166418449Y-148176909D01*
X166418449Y-148176909D02*
X166513687Y-148129290D01*
X166513687Y-148129290D02*
X166561306Y-148081671D01*
X166561306Y-148081671D02*
X166608925Y-147986433D01*
X169371306Y-148237862D02*
X169371306Y-147237862D01*
X169942734Y-148237862D02*
X169514163Y-147666433D01*
X169942734Y-147237862D02*
X169371306Y-147809290D01*
X183519997Y-128945379D02*
X183662854Y-128992998D01*
X183662854Y-128992998D02*
X183900949Y-128992998D01*
X183900949Y-128992998D02*
X183996187Y-128945379D01*
X183996187Y-128945379D02*
X184043806Y-128897759D01*
X184043806Y-128897759D02*
X184091425Y-128802521D01*
X184091425Y-128802521D02*
X184091425Y-128707283D01*
X184091425Y-128707283D02*
X184043806Y-128612045D01*
X184043806Y-128612045D02*
X183996187Y-128564426D01*
X183996187Y-128564426D02*
X183900949Y-128516807D01*
X183900949Y-128516807D02*
X183710473Y-128469188D01*
X183710473Y-128469188D02*
X183615235Y-128421569D01*
X183615235Y-128421569D02*
X183567616Y-128373950D01*
X183567616Y-128373950D02*
X183519997Y-128278712D01*
X183519997Y-128278712D02*
X183519997Y-128183474D01*
X183519997Y-128183474D02*
X183567616Y-128088236D01*
X183567616Y-128088236D02*
X183615235Y-128040617D01*
X183615235Y-128040617D02*
X183710473Y-127992998D01*
X183710473Y-127992998D02*
X183948568Y-127992998D01*
X183948568Y-127992998D02*
X184091425Y-128040617D01*
X184424759Y-127992998D02*
X184662854Y-128992998D01*
X184662854Y-128992998D02*
X184853330Y-128278712D01*
X184853330Y-128278712D02*
X185043806Y-128992998D01*
X185043806Y-128992998D02*
X185281902Y-127992998D01*
X185710473Y-128992998D02*
X185900949Y-128992998D01*
X185900949Y-128992998D02*
X185996187Y-128945379D01*
X185996187Y-128945379D02*
X186043806Y-128897759D01*
X186043806Y-128897759D02*
X186139044Y-128754902D01*
X186139044Y-128754902D02*
X186186663Y-128564426D01*
X186186663Y-128564426D02*
X186186663Y-128183474D01*
X186186663Y-128183474D02*
X186139044Y-128088236D01*
X186139044Y-128088236D02*
X186091425Y-128040617D01*
X186091425Y-128040617D02*
X185996187Y-127992998D01*
X185996187Y-127992998D02*
X185805711Y-127992998D01*
X185805711Y-127992998D02*
X185710473Y-128040617D01*
X185710473Y-128040617D02*
X185662854Y-128088236D01*
X185662854Y-128088236D02*
X185615235Y-128183474D01*
X185615235Y-128183474D02*
X185615235Y-128421569D01*
X185615235Y-128421569D02*
X185662854Y-128516807D01*
X185662854Y-128516807D02*
X185710473Y-128564426D01*
X185710473Y-128564426D02*
X185805711Y-128612045D01*
X185805711Y-128612045D02*
X185996187Y-128612045D01*
X185996187Y-128612045D02*
X186091425Y-128564426D01*
X186091425Y-128564426D02*
X186139044Y-128516807D01*
X186139044Y-128516807D02*
X186186663Y-128421569D01*
X126478453Y-67592170D02*
X126478453Y-66592170D01*
X126478453Y-66592170D02*
X126716548Y-66592170D01*
X126716548Y-66592170D02*
X126859405Y-66639789D01*
X126859405Y-66639789D02*
X126954643Y-66735027D01*
X126954643Y-66735027D02*
X127002262Y-66830265D01*
X127002262Y-66830265D02*
X127049881Y-67020741D01*
X127049881Y-67020741D02*
X127049881Y-67163598D01*
X127049881Y-67163598D02*
X127002262Y-67354074D01*
X127002262Y-67354074D02*
X126954643Y-67449312D01*
X126954643Y-67449312D02*
X126859405Y-67544551D01*
X126859405Y-67544551D02*
X126716548Y-67592170D01*
X126716548Y-67592170D02*
X126478453Y-67592170D01*
X128002262Y-67592170D02*
X127430834Y-67592170D01*
X127716548Y-67592170D02*
X127716548Y-66592170D01*
X127716548Y-66592170D02*
X127621310Y-66735027D01*
X127621310Y-66735027D02*
X127526072Y-66830265D01*
X127526072Y-66830265D02*
X127430834Y-66877884D01*
X128907024Y-66592170D02*
X128430834Y-66592170D01*
X128430834Y-66592170D02*
X128383215Y-67068360D01*
X128383215Y-67068360D02*
X128430834Y-67020741D01*
X128430834Y-67020741D02*
X128526072Y-66973122D01*
X128526072Y-66973122D02*
X128764167Y-66973122D01*
X128764167Y-66973122D02*
X128859405Y-67020741D01*
X128859405Y-67020741D02*
X128907024Y-67068360D01*
X128907024Y-67068360D02*
X128954643Y-67163598D01*
X128954643Y-67163598D02*
X128954643Y-67401693D01*
X128954643Y-67401693D02*
X128907024Y-67496931D01*
X128907024Y-67496931D02*
X128859405Y-67544551D01*
X128859405Y-67544551D02*
X128764167Y-67592170D01*
X128764167Y-67592170D02*
X128526072Y-67592170D01*
X128526072Y-67592170D02*
X128430834Y-67544551D01*
X128430834Y-67544551D02*
X128383215Y-67496931D01*
X131240834Y-67272170D02*
X131240834Y-66272170D01*
X131812262Y-67272170D02*
X131383691Y-66700741D01*
X131812262Y-66272170D02*
X131240834Y-66843598D01*
X126408925Y-148557862D02*
X126408925Y-147557862D01*
X126408925Y-147557862D02*
X126647020Y-147557862D01*
X126647020Y-147557862D02*
X126789877Y-147605481D01*
X126789877Y-147605481D02*
X126885115Y-147700719D01*
X126885115Y-147700719D02*
X126932734Y-147795957D01*
X126932734Y-147795957D02*
X126980353Y-147986433D01*
X126980353Y-147986433D02*
X126980353Y-148129290D01*
X126980353Y-148129290D02*
X126932734Y-148319766D01*
X126932734Y-148319766D02*
X126885115Y-148415004D01*
X126885115Y-148415004D02*
X126789877Y-148510243D01*
X126789877Y-148510243D02*
X126647020Y-148557862D01*
X126647020Y-148557862D02*
X126408925Y-148557862D01*
X127932734Y-148557862D02*
X127361306Y-148557862D01*
X127647020Y-148557862D02*
X127647020Y-147557862D01*
X127647020Y-147557862D02*
X127551782Y-147700719D01*
X127551782Y-147700719D02*
X127456544Y-147795957D01*
X127456544Y-147795957D02*
X127361306Y-147843576D01*
X128266068Y-147557862D02*
X128932734Y-147557862D01*
X128932734Y-147557862D02*
X128504163Y-148557862D01*
X131171306Y-148237862D02*
X131171306Y-147237862D01*
X131742734Y-148237862D02*
X131314163Y-147666433D01*
X131742734Y-147237862D02*
X131171306Y-147809290D01*
X136003453Y-96167170D02*
X136003453Y-95167170D01*
X136003453Y-95167170D02*
X136241548Y-95167170D01*
X136241548Y-95167170D02*
X136384405Y-95214789D01*
X136384405Y-95214789D02*
X136479643Y-95310027D01*
X136479643Y-95310027D02*
X136527262Y-95405265D01*
X136527262Y-95405265D02*
X136574881Y-95595741D01*
X136574881Y-95595741D02*
X136574881Y-95738598D01*
X136574881Y-95738598D02*
X136527262Y-95929074D01*
X136527262Y-95929074D02*
X136479643Y-96024312D01*
X136479643Y-96024312D02*
X136384405Y-96119551D01*
X136384405Y-96119551D02*
X136241548Y-96167170D01*
X136241548Y-96167170D02*
X136003453Y-96167170D01*
X136955834Y-95262408D02*
X137003453Y-95214789D01*
X137003453Y-95214789D02*
X137098691Y-95167170D01*
X137098691Y-95167170D02*
X137336786Y-95167170D01*
X137336786Y-95167170D02*
X137432024Y-95214789D01*
X137432024Y-95214789D02*
X137479643Y-95262408D01*
X137479643Y-95262408D02*
X137527262Y-95357646D01*
X137527262Y-95357646D02*
X137527262Y-95452884D01*
X137527262Y-95452884D02*
X137479643Y-95595741D01*
X137479643Y-95595741D02*
X136908215Y-96167170D01*
X136908215Y-96167170D02*
X137527262Y-96167170D01*
X138479643Y-96167170D02*
X137908215Y-96167170D01*
X138193929Y-96167170D02*
X138193929Y-95167170D01*
X138193929Y-95167170D02*
X138098691Y-95310027D01*
X138098691Y-95310027D02*
X138003453Y-95405265D01*
X138003453Y-95405265D02*
X137908215Y-95452884D01*
X140765834Y-95847170D02*
X140765834Y-94847170D01*
X141337262Y-95847170D02*
X140908691Y-95275741D01*
X141337262Y-94847170D02*
X140765834Y-95418598D01*
X175344700Y-54463053D02*
X175535176Y-54463053D01*
X175535176Y-54463053D02*
X175630414Y-54510672D01*
X175630414Y-54510672D02*
X175725652Y-54605910D01*
X175725652Y-54605910D02*
X175773271Y-54796386D01*
X175773271Y-54796386D02*
X175773271Y-55129719D01*
X175773271Y-55129719D02*
X175725652Y-55320195D01*
X175725652Y-55320195D02*
X175630414Y-55415434D01*
X175630414Y-55415434D02*
X175535176Y-55463053D01*
X175535176Y-55463053D02*
X175344700Y-55463053D01*
X175344700Y-55463053D02*
X175249462Y-55415434D01*
X175249462Y-55415434D02*
X175154224Y-55320195D01*
X175154224Y-55320195D02*
X175106605Y-55129719D01*
X175106605Y-55129719D02*
X175106605Y-54796386D01*
X175106605Y-54796386D02*
X175154224Y-54605910D01*
X175154224Y-54605910D02*
X175249462Y-54510672D01*
X175249462Y-54510672D02*
X175344700Y-54463053D01*
X176678033Y-55463053D02*
X176201843Y-55463053D01*
X176201843Y-55463053D02*
X176201843Y-54463053D01*
X177011367Y-54939243D02*
X177344700Y-54939243D01*
X177487557Y-55463053D02*
X177011367Y-55463053D01*
X177011367Y-55463053D02*
X177011367Y-54463053D01*
X177011367Y-54463053D02*
X177487557Y-54463053D01*
X177916129Y-55463053D02*
X177916129Y-54463053D01*
X177916129Y-54463053D02*
X178154224Y-54463053D01*
X178154224Y-54463053D02*
X178297081Y-54510672D01*
X178297081Y-54510672D02*
X178392319Y-54605910D01*
X178392319Y-54605910D02*
X178439938Y-54701148D01*
X178439938Y-54701148D02*
X178487557Y-54891624D01*
X178487557Y-54891624D02*
X178487557Y-55034481D01*
X178487557Y-55034481D02*
X178439938Y-55224957D01*
X178439938Y-55224957D02*
X178392319Y-55320195D01*
X178392319Y-55320195D02*
X178297081Y-55415434D01*
X178297081Y-55415434D02*
X178154224Y-55463053D01*
X178154224Y-55463053D02*
X177916129Y-55463053D01*
X179439938Y-55463053D02*
X178868510Y-55463053D01*
X179154224Y-55463053D02*
X179154224Y-54463053D01*
X179154224Y-54463053D02*
X179058986Y-54605910D01*
X179058986Y-54605910D02*
X178963748Y-54701148D01*
X178963748Y-54701148D02*
X178868510Y-54748767D01*
X172462558Y-87911684D02*
X172569701Y-87947398D01*
X172569701Y-87947398D02*
X172748272Y-87947398D01*
X172748272Y-87947398D02*
X172819701Y-87911684D01*
X172819701Y-87911684D02*
X172855415Y-87875969D01*
X172855415Y-87875969D02*
X172891129Y-87804541D01*
X172891129Y-87804541D02*
X172891129Y-87733112D01*
X172891129Y-87733112D02*
X172855415Y-87661684D01*
X172855415Y-87661684D02*
X172819701Y-87625969D01*
X172819701Y-87625969D02*
X172748272Y-87590255D01*
X172748272Y-87590255D02*
X172605415Y-87554541D01*
X172605415Y-87554541D02*
X172533986Y-87518826D01*
X172533986Y-87518826D02*
X172498272Y-87483112D01*
X172498272Y-87483112D02*
X172462558Y-87411684D01*
X172462558Y-87411684D02*
X172462558Y-87340255D01*
X172462558Y-87340255D02*
X172498272Y-87268826D01*
X172498272Y-87268826D02*
X172533986Y-87233112D01*
X172533986Y-87233112D02*
X172605415Y-87197398D01*
X172605415Y-87197398D02*
X172783986Y-87197398D01*
X172783986Y-87197398D02*
X172891129Y-87233112D01*
X173212558Y-87947398D02*
X173212558Y-87197398D01*
X173212558Y-87197398D02*
X173391129Y-87197398D01*
X173391129Y-87197398D02*
X173498272Y-87233112D01*
X173498272Y-87233112D02*
X173569701Y-87304541D01*
X173569701Y-87304541D02*
X173605415Y-87375969D01*
X173605415Y-87375969D02*
X173641129Y-87518826D01*
X173641129Y-87518826D02*
X173641129Y-87625969D01*
X173641129Y-87625969D02*
X173605415Y-87768826D01*
X173605415Y-87768826D02*
X173569701Y-87840255D01*
X173569701Y-87840255D02*
X173498272Y-87911684D01*
X173498272Y-87911684D02*
X173391129Y-87947398D01*
X173391129Y-87947398D02*
X173212558Y-87947398D01*
X173926844Y-87733112D02*
X174283987Y-87733112D01*
X173855415Y-87947398D02*
X174105415Y-87197398D01*
X174105415Y-87197398D02*
X174355415Y-87947398D01*
X175020415Y-87911684D02*
X175127558Y-87947398D01*
X175127558Y-87947398D02*
X175306129Y-87947398D01*
X175306129Y-87947398D02*
X175377558Y-87911684D01*
X175377558Y-87911684D02*
X175413272Y-87875969D01*
X175413272Y-87875969D02*
X175448986Y-87804541D01*
X175448986Y-87804541D02*
X175448986Y-87733112D01*
X175448986Y-87733112D02*
X175413272Y-87661684D01*
X175413272Y-87661684D02*
X175377558Y-87625969D01*
X175377558Y-87625969D02*
X175306129Y-87590255D01*
X175306129Y-87590255D02*
X175163272Y-87554541D01*
X175163272Y-87554541D02*
X175091843Y-87518826D01*
X175091843Y-87518826D02*
X175056129Y-87483112D01*
X175056129Y-87483112D02*
X175020415Y-87411684D01*
X175020415Y-87411684D02*
X175020415Y-87340255D01*
X175020415Y-87340255D02*
X175056129Y-87268826D01*
X175056129Y-87268826D02*
X175091843Y-87233112D01*
X175091843Y-87233112D02*
X175163272Y-87197398D01*
X175163272Y-87197398D02*
X175341843Y-87197398D01*
X175341843Y-87197398D02*
X175448986Y-87233112D01*
X176198986Y-87875969D02*
X176163272Y-87911684D01*
X176163272Y-87911684D02*
X176056129Y-87947398D01*
X176056129Y-87947398D02*
X175984701Y-87947398D01*
X175984701Y-87947398D02*
X175877558Y-87911684D01*
X175877558Y-87911684D02*
X175806129Y-87840255D01*
X175806129Y-87840255D02*
X175770415Y-87768826D01*
X175770415Y-87768826D02*
X175734701Y-87625969D01*
X175734701Y-87625969D02*
X175734701Y-87518826D01*
X175734701Y-87518826D02*
X175770415Y-87375969D01*
X175770415Y-87375969D02*
X175806129Y-87304541D01*
X175806129Y-87304541D02*
X175877558Y-87233112D01*
X175877558Y-87233112D02*
X175984701Y-87197398D01*
X175984701Y-87197398D02*
X176056129Y-87197398D01*
X176056129Y-87197398D02*
X176163272Y-87233112D01*
X176163272Y-87233112D02*
X176198986Y-87268826D01*
X176877558Y-87947398D02*
X176520415Y-87947398D01*
X176520415Y-87947398D02*
X176520415Y-87197398D01*
X176638091Y-76036805D02*
X176638091Y-75846329D01*
X176638091Y-75846329D02*
X176685710Y-75751091D01*
X176685710Y-75751091D02*
X176780948Y-75655853D01*
X176780948Y-75655853D02*
X176971424Y-75608234D01*
X176971424Y-75608234D02*
X177304757Y-75608234D01*
X177304757Y-75608234D02*
X177495233Y-75655853D01*
X177495233Y-75655853D02*
X177590472Y-75751091D01*
X177590472Y-75751091D02*
X177638091Y-75846329D01*
X177638091Y-75846329D02*
X177638091Y-76036805D01*
X177638091Y-76036805D02*
X177590472Y-76132043D01*
X177590472Y-76132043D02*
X177495233Y-76227281D01*
X177495233Y-76227281D02*
X177304757Y-76274900D01*
X177304757Y-76274900D02*
X176971424Y-76274900D01*
X176971424Y-76274900D02*
X176780948Y-76227281D01*
X176780948Y-76227281D02*
X176685710Y-76132043D01*
X176685710Y-76132043D02*
X176638091Y-76036805D01*
X177638091Y-74703472D02*
X177638091Y-75179662D01*
X177638091Y-75179662D02*
X176638091Y-75179662D01*
X177114281Y-74370138D02*
X177114281Y-74036805D01*
X177638091Y-73893948D02*
X177638091Y-74370138D01*
X177638091Y-74370138D02*
X176638091Y-74370138D01*
X176638091Y-74370138D02*
X176638091Y-73893948D01*
X177638091Y-73465376D02*
X176638091Y-73465376D01*
X176638091Y-73465376D02*
X176638091Y-73227281D01*
X176638091Y-73227281D02*
X176685710Y-73084424D01*
X176685710Y-73084424D02*
X176780948Y-72989186D01*
X176780948Y-72989186D02*
X176876186Y-72941567D01*
X176876186Y-72941567D02*
X177066662Y-72893948D01*
X177066662Y-72893948D02*
X177209519Y-72893948D01*
X177209519Y-72893948D02*
X177399995Y-72941567D01*
X177399995Y-72941567D02*
X177495233Y-72989186D01*
X177495233Y-72989186D02*
X177590472Y-73084424D01*
X177590472Y-73084424D02*
X177638091Y-73227281D01*
X177638091Y-73227281D02*
X177638091Y-73465376D01*
X177638091Y-71703471D02*
X176638091Y-71703471D01*
X176638091Y-71703471D02*
X176638091Y-71322519D01*
X176638091Y-71322519D02*
X176685710Y-71227281D01*
X176685710Y-71227281D02*
X176733329Y-71179662D01*
X176733329Y-71179662D02*
X176828567Y-71132043D01*
X176828567Y-71132043D02*
X176971424Y-71132043D01*
X176971424Y-71132043D02*
X177066662Y-71179662D01*
X177066662Y-71179662D02*
X177114281Y-71227281D01*
X177114281Y-71227281D02*
X177161900Y-71322519D01*
X177161900Y-71322519D02*
X177161900Y-71703471D01*
X177638091Y-70274900D02*
X177114281Y-70274900D01*
X177114281Y-70274900D02*
X177019043Y-70322519D01*
X177019043Y-70322519D02*
X176971424Y-70417757D01*
X176971424Y-70417757D02*
X176971424Y-70608233D01*
X176971424Y-70608233D02*
X177019043Y-70703471D01*
X177590472Y-70274900D02*
X177638091Y-70370138D01*
X177638091Y-70370138D02*
X177638091Y-70608233D01*
X177638091Y-70608233D02*
X177590472Y-70703471D01*
X177590472Y-70703471D02*
X177495233Y-70751090D01*
X177495233Y-70751090D02*
X177399995Y-70751090D01*
X177399995Y-70751090D02*
X177304757Y-70703471D01*
X177304757Y-70703471D02*
X177257138Y-70608233D01*
X177257138Y-70608233D02*
X177257138Y-70370138D01*
X177257138Y-70370138D02*
X177209519Y-70274900D01*
X176971424Y-69798709D02*
X177638091Y-69798709D01*
X177066662Y-69798709D02*
X177019043Y-69751090D01*
X177019043Y-69751090D02*
X176971424Y-69655852D01*
X176971424Y-69655852D02*
X176971424Y-69512995D01*
X176971424Y-69512995D02*
X177019043Y-69417757D01*
X177019043Y-69417757D02*
X177114281Y-69370138D01*
X177114281Y-69370138D02*
X177638091Y-69370138D01*
X177590472Y-68512995D02*
X177638091Y-68608233D01*
X177638091Y-68608233D02*
X177638091Y-68798709D01*
X177638091Y-68798709D02*
X177590472Y-68893947D01*
X177590472Y-68893947D02*
X177495233Y-68941566D01*
X177495233Y-68941566D02*
X177114281Y-68941566D01*
X177114281Y-68941566D02*
X177019043Y-68893947D01*
X177019043Y-68893947D02*
X176971424Y-68798709D01*
X176971424Y-68798709D02*
X176971424Y-68608233D01*
X176971424Y-68608233D02*
X177019043Y-68512995D01*
X177019043Y-68512995D02*
X177114281Y-68465376D01*
X177114281Y-68465376D02*
X177209519Y-68465376D01*
X177209519Y-68465376D02*
X177304757Y-68941566D01*
X177638091Y-67893947D02*
X177590472Y-67989185D01*
X177590472Y-67989185D02*
X177495233Y-68036804D01*
X177495233Y-68036804D02*
X176638091Y-68036804D01*
X177453272Y-87197398D02*
X177703272Y-87947398D01*
X177703272Y-87947398D02*
X177953272Y-87197398D01*
X178631843Y-87875969D02*
X178596129Y-87911684D01*
X178596129Y-87911684D02*
X178488986Y-87947398D01*
X178488986Y-87947398D02*
X178417558Y-87947398D01*
X178417558Y-87947398D02*
X178310415Y-87911684D01*
X178310415Y-87911684D02*
X178238986Y-87840255D01*
X178238986Y-87840255D02*
X178203272Y-87768826D01*
X178203272Y-87768826D02*
X178167558Y-87625969D01*
X178167558Y-87625969D02*
X178167558Y-87518826D01*
X178167558Y-87518826D02*
X178203272Y-87375969D01*
X178203272Y-87375969D02*
X178238986Y-87304541D01*
X178238986Y-87304541D02*
X178310415Y-87233112D01*
X178310415Y-87233112D02*
X178417558Y-87197398D01*
X178417558Y-87197398D02*
X178488986Y-87197398D01*
X178488986Y-87197398D02*
X178596129Y-87233112D01*
X178596129Y-87233112D02*
X178631843Y-87268826D01*
X179381843Y-87875969D02*
X179346129Y-87911684D01*
X179346129Y-87911684D02*
X179238986Y-87947398D01*
X179238986Y-87947398D02*
X179167558Y-87947398D01*
X179167558Y-87947398D02*
X179060415Y-87911684D01*
X179060415Y-87911684D02*
X178988986Y-87840255D01*
X178988986Y-87840255D02*
X178953272Y-87768826D01*
X178953272Y-87768826D02*
X178917558Y-87625969D01*
X178917558Y-87625969D02*
X178917558Y-87518826D01*
X178917558Y-87518826D02*
X178953272Y-87375969D01*
X178953272Y-87375969D02*
X178988986Y-87304541D01*
X178988986Y-87304541D02*
X179060415Y-87233112D01*
X179060415Y-87233112D02*
X179167558Y-87197398D01*
X179167558Y-87197398D02*
X179238986Y-87197398D01*
X179238986Y-87197398D02*
X179346129Y-87233112D01*
X179346129Y-87233112D02*
X179381843Y-87268826D01*
X180421843Y-87233112D02*
X180350415Y-87197398D01*
X180350415Y-87197398D02*
X180243272Y-87197398D01*
X180243272Y-87197398D02*
X180136129Y-87233112D01*
X180136129Y-87233112D02*
X180064700Y-87304541D01*
X180064700Y-87304541D02*
X180028986Y-87375969D01*
X180028986Y-87375969D02*
X179993272Y-87518826D01*
X179993272Y-87518826D02*
X179993272Y-87625969D01*
X179993272Y-87625969D02*
X180028986Y-87768826D01*
X180028986Y-87768826D02*
X180064700Y-87840255D01*
X180064700Y-87840255D02*
X180136129Y-87911684D01*
X180136129Y-87911684D02*
X180243272Y-87947398D01*
X180243272Y-87947398D02*
X180314700Y-87947398D01*
X180314700Y-87947398D02*
X180421843Y-87911684D01*
X180421843Y-87911684D02*
X180457557Y-87875969D01*
X180457557Y-87875969D02*
X180457557Y-87625969D01*
X180457557Y-87625969D02*
X180314700Y-87625969D01*
X180778986Y-87947398D02*
X180778986Y-87197398D01*
X180778986Y-87197398D02*
X181207557Y-87947398D01*
X181207557Y-87947398D02*
X181207557Y-87197398D01*
X181564700Y-87947398D02*
X181564700Y-87197398D01*
X181564700Y-87197398D02*
X181743271Y-87197398D01*
X181743271Y-87197398D02*
X181850414Y-87233112D01*
X181850414Y-87233112D02*
X181921843Y-87304541D01*
X181921843Y-87304541D02*
X181957557Y-87375969D01*
X181957557Y-87375969D02*
X181993271Y-87518826D01*
X181993271Y-87518826D02*
X181993271Y-87625969D01*
X181993271Y-87625969D02*
X181957557Y-87768826D01*
X181957557Y-87768826D02*
X181921843Y-87840255D01*
X181921843Y-87840255D02*
X181850414Y-87911684D01*
X181850414Y-87911684D02*
X181743271Y-87947398D01*
X181743271Y-87947398D02*
X181564700Y-87947398D01*
X116764878Y-100416243D02*
X116907735Y-100463862D01*
X116907735Y-100463862D02*
X117145830Y-100463862D01*
X117145830Y-100463862D02*
X117241068Y-100416243D01*
X117241068Y-100416243D02*
X117288687Y-100368623D01*
X117288687Y-100368623D02*
X117336306Y-100273385D01*
X117336306Y-100273385D02*
X117336306Y-100178147D01*
X117336306Y-100178147D02*
X117288687Y-100082909D01*
X117288687Y-100082909D02*
X117241068Y-100035290D01*
X117241068Y-100035290D02*
X117145830Y-99987671D01*
X117145830Y-99987671D02*
X116955354Y-99940052D01*
X116955354Y-99940052D02*
X116860116Y-99892433D01*
X116860116Y-99892433D02*
X116812497Y-99844814D01*
X116812497Y-99844814D02*
X116764878Y-99749576D01*
X116764878Y-99749576D02*
X116764878Y-99654338D01*
X116764878Y-99654338D02*
X116812497Y-99559100D01*
X116812497Y-99559100D02*
X116860116Y-99511481D01*
X116860116Y-99511481D02*
X116955354Y-99463862D01*
X116955354Y-99463862D02*
X117193449Y-99463862D01*
X117193449Y-99463862D02*
X117336306Y-99511481D01*
X117669640Y-99463862D02*
X117907735Y-100463862D01*
X117907735Y-100463862D02*
X118098211Y-99749576D01*
X118098211Y-99749576D02*
X118288687Y-100463862D01*
X118288687Y-100463862D02*
X118526783Y-99463862D01*
X118812497Y-99463862D02*
X119431544Y-99463862D01*
X119431544Y-99463862D02*
X119098211Y-99844814D01*
X119098211Y-99844814D02*
X119241068Y-99844814D01*
X119241068Y-99844814D02*
X119336306Y-99892433D01*
X119336306Y-99892433D02*
X119383925Y-99940052D01*
X119383925Y-99940052D02*
X119431544Y-100035290D01*
X119431544Y-100035290D02*
X119431544Y-100273385D01*
X119431544Y-100273385D02*
X119383925Y-100368623D01*
X119383925Y-100368623D02*
X119336306Y-100416243D01*
X119336306Y-100416243D02*
X119241068Y-100463862D01*
X119241068Y-100463862D02*
X118955354Y-100463862D01*
X118955354Y-100463862D02*
X118860116Y-100416243D01*
X118860116Y-100416243D02*
X118812497Y-100368623D01*
X117360116Y-119982862D02*
X117360116Y-118982862D01*
X117360116Y-118982862D02*
X117598211Y-118982862D01*
X117598211Y-118982862D02*
X117741068Y-119030481D01*
X117741068Y-119030481D02*
X117836306Y-119125719D01*
X117836306Y-119125719D02*
X117883925Y-119220957D01*
X117883925Y-119220957D02*
X117931544Y-119411433D01*
X117931544Y-119411433D02*
X117931544Y-119554290D01*
X117931544Y-119554290D02*
X117883925Y-119744766D01*
X117883925Y-119744766D02*
X117836306Y-119840004D01*
X117836306Y-119840004D02*
X117741068Y-119935243D01*
X117741068Y-119935243D02*
X117598211Y-119982862D01*
X117598211Y-119982862D02*
X117360116Y-119982862D01*
X118264878Y-118982862D02*
X118931544Y-118982862D01*
X118931544Y-118982862D02*
X118502973Y-119982862D01*
X121646306Y-119662862D02*
X121646306Y-118662862D01*
X122217734Y-119662862D02*
X121789163Y-119091433D01*
X122217734Y-118662862D02*
X121646306Y-119234290D01*
X135814878Y-100416243D02*
X135957735Y-100463862D01*
X135957735Y-100463862D02*
X136195830Y-100463862D01*
X136195830Y-100463862D02*
X136291068Y-100416243D01*
X136291068Y-100416243D02*
X136338687Y-100368623D01*
X136338687Y-100368623D02*
X136386306Y-100273385D01*
X136386306Y-100273385D02*
X136386306Y-100178147D01*
X136386306Y-100178147D02*
X136338687Y-100082909D01*
X136338687Y-100082909D02*
X136291068Y-100035290D01*
X136291068Y-100035290D02*
X136195830Y-99987671D01*
X136195830Y-99987671D02*
X136005354Y-99940052D01*
X136005354Y-99940052D02*
X135910116Y-99892433D01*
X135910116Y-99892433D02*
X135862497Y-99844814D01*
X135862497Y-99844814D02*
X135814878Y-99749576D01*
X135814878Y-99749576D02*
X135814878Y-99654338D01*
X135814878Y-99654338D02*
X135862497Y-99559100D01*
X135862497Y-99559100D02*
X135910116Y-99511481D01*
X135910116Y-99511481D02*
X136005354Y-99463862D01*
X136005354Y-99463862D02*
X136243449Y-99463862D01*
X136243449Y-99463862D02*
X136386306Y-99511481D01*
X136719640Y-99463862D02*
X136957735Y-100463862D01*
X136957735Y-100463862D02*
X137148211Y-99749576D01*
X137148211Y-99749576D02*
X137338687Y-100463862D01*
X137338687Y-100463862D02*
X137576783Y-99463862D01*
X138386306Y-99797195D02*
X138386306Y-100463862D01*
X138148211Y-99416243D02*
X137910116Y-100130528D01*
X137910116Y-100130528D02*
X138529163Y-100130528D01*
X107358925Y-148557862D02*
X107358925Y-147557862D01*
X107358925Y-147557862D02*
X107597020Y-147557862D01*
X107597020Y-147557862D02*
X107739877Y-147605481D01*
X107739877Y-147605481D02*
X107835115Y-147700719D01*
X107835115Y-147700719D02*
X107882734Y-147795957D01*
X107882734Y-147795957D02*
X107930353Y-147986433D01*
X107930353Y-147986433D02*
X107930353Y-148129290D01*
X107930353Y-148129290D02*
X107882734Y-148319766D01*
X107882734Y-148319766D02*
X107835115Y-148415004D01*
X107835115Y-148415004D02*
X107739877Y-148510243D01*
X107739877Y-148510243D02*
X107597020Y-148557862D01*
X107597020Y-148557862D02*
X107358925Y-148557862D01*
X108882734Y-148557862D02*
X108311306Y-148557862D01*
X108597020Y-148557862D02*
X108597020Y-147557862D01*
X108597020Y-147557862D02*
X108501782Y-147700719D01*
X108501782Y-147700719D02*
X108406544Y-147795957D01*
X108406544Y-147795957D02*
X108311306Y-147843576D01*
X109739877Y-147557862D02*
X109549401Y-147557862D01*
X109549401Y-147557862D02*
X109454163Y-147605481D01*
X109454163Y-147605481D02*
X109406544Y-147653100D01*
X109406544Y-147653100D02*
X109311306Y-147795957D01*
X109311306Y-147795957D02*
X109263687Y-147986433D01*
X109263687Y-147986433D02*
X109263687Y-148367385D01*
X109263687Y-148367385D02*
X109311306Y-148462623D01*
X109311306Y-148462623D02*
X109358925Y-148510243D01*
X109358925Y-148510243D02*
X109454163Y-148557862D01*
X109454163Y-148557862D02*
X109644639Y-148557862D01*
X109644639Y-148557862D02*
X109739877Y-148510243D01*
X109739877Y-148510243D02*
X109787496Y-148462623D01*
X109787496Y-148462623D02*
X109835115Y-148367385D01*
X109835115Y-148367385D02*
X109835115Y-148129290D01*
X109835115Y-148129290D02*
X109787496Y-148034052D01*
X109787496Y-148034052D02*
X109739877Y-147986433D01*
X109739877Y-147986433D02*
X109644639Y-147938814D01*
X109644639Y-147938814D02*
X109454163Y-147938814D01*
X109454163Y-147938814D02*
X109358925Y-147986433D01*
X109358925Y-147986433D02*
X109311306Y-148034052D01*
X109311306Y-148034052D02*
X109263687Y-148129290D01*
X112121306Y-148237862D02*
X112121306Y-147237862D01*
X112692734Y-148237862D02*
X112264163Y-147666433D01*
X112692734Y-147237862D02*
X112121306Y-147809290D01*
X116363334Y-76554687D02*
X116506191Y-76602306D01*
X116506191Y-76602306D02*
X116744286Y-76602306D01*
X116744286Y-76602306D02*
X116839524Y-76554687D01*
X116839524Y-76554687D02*
X116887143Y-76507067D01*
X116887143Y-76507067D02*
X116934762Y-76411829D01*
X116934762Y-76411829D02*
X116934762Y-76316591D01*
X116934762Y-76316591D02*
X116887143Y-76221353D01*
X116887143Y-76221353D02*
X116839524Y-76173734D01*
X116839524Y-76173734D02*
X116744286Y-76126115D01*
X116744286Y-76126115D02*
X116553810Y-76078496D01*
X116553810Y-76078496D02*
X116458572Y-76030877D01*
X116458572Y-76030877D02*
X116410953Y-75983258D01*
X116410953Y-75983258D02*
X116363334Y-75888020D01*
X116363334Y-75888020D02*
X116363334Y-75792782D01*
X116363334Y-75792782D02*
X116410953Y-75697544D01*
X116410953Y-75697544D02*
X116458572Y-75649925D01*
X116458572Y-75649925D02*
X116553810Y-75602306D01*
X116553810Y-75602306D02*
X116791905Y-75602306D01*
X116791905Y-75602306D02*
X116934762Y-75649925D01*
X117268096Y-75602306D02*
X117506191Y-76602306D01*
X117506191Y-76602306D02*
X117696667Y-75888020D01*
X117696667Y-75888020D02*
X117887143Y-76602306D01*
X117887143Y-76602306D02*
X118125239Y-75602306D01*
X119030000Y-76602306D02*
X118458572Y-76602306D01*
X118744286Y-76602306D02*
X118744286Y-75602306D01*
X118744286Y-75602306D02*
X118649048Y-75745163D01*
X118649048Y-75745163D02*
X118553810Y-75840401D01*
X118553810Y-75840401D02*
X118458572Y-75888020D01*
X119363334Y-75602306D02*
X119982381Y-75602306D01*
X119982381Y-75602306D02*
X119649048Y-75983258D01*
X119649048Y-75983258D02*
X119791905Y-75983258D01*
X119791905Y-75983258D02*
X119887143Y-76030877D01*
X119887143Y-76030877D02*
X119934762Y-76078496D01*
X119934762Y-76078496D02*
X119982381Y-76173734D01*
X119982381Y-76173734D02*
X119982381Y-76411829D01*
X119982381Y-76411829D02*
X119934762Y-76507067D01*
X119934762Y-76507067D02*
X119887143Y-76554687D01*
X119887143Y-76554687D02*
X119791905Y-76602306D01*
X119791905Y-76602306D02*
X119506191Y-76602306D01*
X119506191Y-76602306D02*
X119410953Y-76554687D01*
X119410953Y-76554687D02*
X119363334Y-76507067D01*
%TO.C,D8*%
D11*
X134378211Y-117408043D02*
X135028211Y-117408043D01*
X138428211Y-118528043D02*
X138428211Y-116288043D01*
X138548211Y-118528043D02*
X138548211Y-116288043D01*
X138668211Y-118528043D02*
X138668211Y-116288043D01*
X139918211Y-117408043D02*
X139268211Y-117408043D01*
X135028211Y-116288043D02*
X139268211Y-116288043D01*
X139268211Y-118528043D01*
X135028211Y-118528043D01*
X135028211Y-116288043D01*
%TO.C,SW5*%
X158818330Y-129427179D02*
X172788330Y-129427179D01*
X158818330Y-143397179D02*
X158818330Y-129427179D01*
X172788330Y-129427179D02*
X172788330Y-143397179D01*
X172788330Y-143397179D02*
X158818330Y-143397179D01*
%TO.C,D19*%
X182103211Y-145983043D02*
X182753211Y-145983043D01*
X186153211Y-147103043D02*
X186153211Y-144863043D01*
X186273211Y-147103043D02*
X186273211Y-144863043D01*
X186393211Y-147103043D02*
X186393211Y-144863043D01*
X187643211Y-145983043D02*
X186993211Y-145983043D01*
X182753211Y-144863043D02*
X186993211Y-144863043D01*
X186993211Y-147103043D01*
X182753211Y-147103043D01*
X182753211Y-144863043D01*
%TO.C,SW11*%
X101582739Y-48507351D02*
X115552739Y-48507351D01*
X101582739Y-62477351D02*
X101582739Y-48507351D01*
X115552739Y-48507351D02*
X115552739Y-62477351D01*
X115552739Y-62477351D02*
X101582739Y-62477351D01*
%TO.C,SW19*%
X130237858Y-77036487D02*
X144207858Y-77036487D01*
X130237858Y-91006487D02*
X130237858Y-77036487D01*
X144207858Y-77036487D02*
X144207858Y-91006487D01*
X144207858Y-91006487D02*
X130237858Y-91006487D01*
%TO.C,SW8*%
X101588211Y-129473043D02*
X115558211Y-129473043D01*
X101588211Y-143443043D02*
X101588211Y-129473043D01*
X115558211Y-129473043D02*
X115558211Y-143443043D01*
X115558211Y-143443043D02*
X101588211Y-143443043D01*
%TO.C,D20*%
X115397739Y-93592351D02*
X116047739Y-93592351D01*
X119447739Y-94712351D02*
X119447739Y-92472351D01*
X119567739Y-94712351D02*
X119567739Y-92472351D01*
X119687739Y-94712351D02*
X119687739Y-92472351D01*
X120937739Y-93592351D02*
X120287739Y-93592351D01*
X116047739Y-92472351D02*
X120287739Y-92472351D01*
X120287739Y-94712351D01*
X116047739Y-94712351D01*
X116047739Y-92472351D01*
%TO.C,D13*%
X172518211Y-117408043D02*
X173168211Y-117408043D01*
X176568211Y-118528043D02*
X176568211Y-116288043D01*
X176688211Y-118528043D02*
X176688211Y-116288043D01*
X176808211Y-118528043D02*
X176808211Y-116288043D01*
X178058211Y-117408043D02*
X177408211Y-117408043D01*
X173168211Y-116288043D02*
X177408211Y-116288043D01*
X177408211Y-118528043D01*
X173168211Y-118528043D01*
X173168211Y-116288043D01*
%TO.C,SW17*%
X120632739Y-48507351D02*
X134602739Y-48507351D01*
X120632739Y-62477351D02*
X120632739Y-48507351D01*
X134602739Y-48507351D02*
X134602739Y-62477351D01*
X134602739Y-62477351D02*
X120632739Y-62477351D01*
%TO.C,SW12*%
X120638211Y-129473043D02*
X134608211Y-129473043D01*
X120638211Y-143443043D02*
X120638211Y-129473043D01*
X134608211Y-129473043D02*
X134608211Y-143443043D01*
X134608211Y-143443043D02*
X120638211Y-143443043D01*
%TO.C,SW7*%
X168263211Y-100898043D02*
X182233211Y-100898043D01*
X168263211Y-114868043D02*
X168263211Y-100898043D01*
X182233211Y-100898043D02*
X182233211Y-114868043D01*
X182233211Y-114868043D02*
X168263211Y-114868043D01*
%TO.C,D18*%
X143893211Y-145983043D02*
X144543211Y-145983043D01*
X147943211Y-147103043D02*
X147943211Y-144863043D01*
X148063211Y-147103043D02*
X148063211Y-144863043D01*
X148183211Y-147103043D02*
X148183211Y-144863043D01*
X149433211Y-145983043D02*
X148783211Y-145983043D01*
X144543211Y-144863043D02*
X148783211Y-144863043D01*
X148783211Y-147103043D01*
X144543211Y-147103043D01*
X144543211Y-144863043D01*
%TO.C,D14*%
X105797739Y-65017351D02*
X106447739Y-65017351D01*
X109847739Y-66137351D02*
X109847739Y-63897351D01*
X109967739Y-66137351D02*
X109967739Y-63897351D01*
X110087739Y-66137351D02*
X110087739Y-63897351D01*
X111337739Y-65017351D02*
X110687739Y-65017351D01*
X106447739Y-63897351D02*
X110687739Y-63897351D01*
X110687739Y-66137351D01*
X106447739Y-66137351D01*
X106447739Y-63897351D01*
%TO.C,SW18*%
X139688211Y-129473043D02*
X153658211Y-129473043D01*
X139688211Y-143443043D02*
X139688211Y-129473043D01*
X153658211Y-129473043D02*
X153658211Y-143443043D01*
X153658211Y-143443043D02*
X139688211Y-143443043D01*
%TO.C,D9*%
X163053211Y-145983043D02*
X163703211Y-145983043D01*
X167103211Y-147103043D02*
X167103211Y-144863043D01*
X167223211Y-147103043D02*
X167223211Y-144863043D01*
X167343211Y-147103043D02*
X167343211Y-144863043D01*
X168593211Y-145983043D02*
X167943211Y-145983043D01*
X163703211Y-144863043D02*
X167943211Y-144863043D01*
X167943211Y-147103043D01*
X163703211Y-147103043D01*
X163703211Y-144863043D01*
%TO.C,SW9*%
X177868330Y-129427179D02*
X191838330Y-129427179D01*
X177868330Y-143397179D02*
X177868330Y-129427179D01*
X191838330Y-129427179D02*
X191838330Y-143397179D01*
X191838330Y-143397179D02*
X177868330Y-143397179D01*
%TO.C,D15*%
X124922739Y-65017351D02*
X125572739Y-65017351D01*
X128972739Y-66137351D02*
X128972739Y-63897351D01*
X129092739Y-66137351D02*
X129092739Y-63897351D01*
X129212739Y-66137351D02*
X129212739Y-63897351D01*
X130462739Y-65017351D02*
X129812739Y-65017351D01*
X125572739Y-63897351D02*
X129812739Y-63897351D01*
X129812739Y-66137351D01*
X125572739Y-66137351D01*
X125572739Y-63897351D01*
%TO.C,D17*%
X124853211Y-145983043D02*
X125503211Y-145983043D01*
X128903211Y-147103043D02*
X128903211Y-144863043D01*
X129023211Y-147103043D02*
X129023211Y-144863043D01*
X129143211Y-147103043D02*
X129143211Y-144863043D01*
X130393211Y-145983043D02*
X129743211Y-145983043D01*
X125503211Y-144863043D02*
X129743211Y-144863043D01*
X129743211Y-147103043D01*
X125503211Y-147103043D01*
X125503211Y-144863043D01*
%TO.C,D21*%
X134447739Y-93592351D02*
X135097739Y-93592351D01*
X138497739Y-94712351D02*
X138497739Y-92472351D01*
X138617739Y-94712351D02*
X138617739Y-92472351D01*
X138737739Y-94712351D02*
X138737739Y-92472351D01*
X139987739Y-93592351D02*
X139337739Y-93592351D01*
X135097739Y-92472351D02*
X139337739Y-92472351D01*
X139337739Y-94712351D01*
X135097739Y-94712351D01*
X135097739Y-92472351D01*
%TO.C,OLED1*%
D12*
X171183272Y-53108234D02*
X171183272Y-91108234D01*
X171183272Y-91108234D02*
X183183272Y-91108234D01*
X183183272Y-53108234D02*
X171183272Y-53108234D01*
X183183272Y-56608234D02*
X171183272Y-56608234D01*
X183183272Y-86108234D02*
X171183272Y-86108234D01*
X183183272Y-91108234D02*
X183183272Y-53108234D01*
%TO.C,SW3*%
D11*
X111113211Y-100898043D02*
X125083211Y-100898043D01*
X111113211Y-114868043D02*
X111113211Y-100898043D01*
X125083211Y-100898043D02*
X125083211Y-114868043D01*
X125083211Y-114868043D02*
X111113211Y-114868043D01*
%TO.C,D7*%
X115328211Y-117408043D02*
X115978211Y-117408043D01*
X119378211Y-118528043D02*
X119378211Y-116288043D01*
X119498211Y-118528043D02*
X119498211Y-116288043D01*
X119618211Y-118528043D02*
X119618211Y-116288043D01*
X120868211Y-117408043D02*
X120218211Y-117408043D01*
X115978211Y-116288043D02*
X120218211Y-116288043D01*
X120218211Y-118528043D01*
X115978211Y-118528043D01*
X115978211Y-116288043D01*
%TO.C,SW4*%
X130163211Y-100898043D02*
X144133211Y-100898043D01*
X130163211Y-114868043D02*
X130163211Y-100898043D01*
X144133211Y-100898043D02*
X144133211Y-114868043D01*
X144133211Y-114868043D02*
X130163211Y-114868043D01*
%TO.C,SongSelect1*%
X145080239Y-49592351D02*
X149180239Y-49592351D01*
X145080239Y-51992351D02*
X145080239Y-49592351D01*
X145080239Y-56792351D02*
X145080239Y-54192351D01*
X145080239Y-61392351D02*
X145080239Y-58992351D01*
X149180239Y-61392351D02*
X145080239Y-61392351D01*
X151180239Y-55992351D02*
X151180239Y-54992351D01*
X151680239Y-55492351D02*
X150680239Y-55492351D01*
X153180239Y-49592351D02*
X157280239Y-49592351D01*
X153180239Y-61392351D02*
X157280239Y-61392351D01*
X157280239Y-61392351D02*
X157280239Y-49592351D01*
X158380239Y-59592351D02*
X158680239Y-59292351D01*
X158680239Y-59292351D02*
X158980239Y-59592351D01*
X158980239Y-59592351D02*
X158380239Y-59592351D01*
X154180239Y-55492351D02*
G75*
G02*
X148180239Y-55492351I-3000000J0D01*
G01*
X148180239Y-55492351D02*
G75*
G02*
X154180239Y-55492351I3000000J0D01*
G01*
%TO.C,D16*%
X105803211Y-145983043D02*
X106453211Y-145983043D01*
X109853211Y-147103043D02*
X109853211Y-144863043D01*
X109973211Y-147103043D02*
X109973211Y-144863043D01*
X110093211Y-147103043D02*
X110093211Y-144863043D01*
X111343211Y-145983043D02*
X110693211Y-145983043D01*
X106453211Y-144863043D02*
X110693211Y-144863043D01*
X110693211Y-147103043D01*
X106453211Y-147103043D01*
X106453211Y-144863043D01*
%TO.C,SW13*%
X111187858Y-77036487D02*
X125157858Y-77036487D01*
X111187858Y-91006487D02*
X111187858Y-77036487D01*
X125157858Y-77036487D02*
X125157858Y-91006487D01*
X125157858Y-91006487D02*
X111187858Y-91006487D01*
%TD*%
M02*
